<svg
   xmlns="http://www.w3.org/2000/svg"
   viewBox="0 0 113.896 25.65"
   id="svg846">
  <path
     d="M 0,25.65 H 25.65 V 3.8986357e-8 H 0 Z M 20.713,10.357 h -5.42 v -5.42 h 5.42 z M 4.936,4.937 h 5.423 v 10.356 h 10.354 v 5.42 H 4.936 Z M 42.353,3.8986357e-8 A 12.825,12.825 0 1 0 55.178,12.825 12.84,12.84 0 0 0 42.353,3.8986357e-8 Z M 42.353,20.713 a 7.888,7.888 0 1 1 7.888,-7.888 7.9,7.9 0 0 1 -7.888,7.888 z M 101.072,3.8986357e-8 A 12.825,12.825 0 1 0 113.896,12.825 12.84,12.84 0 0 0 101.072,3.8986357e-8 Z M 101.072,20.713 a 7.888,7.888 0 1 1 7.887,-7.888 7.9,7.9 0 0 1 -7.887,7.888 z M 71.712,3.8986357e-8 A 12.825,12.825 0 1 0 84.537,12.825 12.84,12.84 0 0 0 71.712,3.8986357e-8 Z M 71.712,20.713 A 7.888,7.888 0 1 1 79.2,10.357 h -7.488 v 4.936 H 79.2 a 7.9,7.9 0 0 1 -7.488,5.42 z"
     fill="#394149"
     id="path844" />
</svg>
