<svg
   xmlns="http://www.w3.org/2000/svg"
   viewBox="0 0 141.726 58"
   fill="none"
   id="svg1494">
  <path
     fill-rule="evenodd"
     clip-rule="evenodd"
     d="m 29,0 h 83.726 c 16.016,0 29,12.9837 29,29 0,16.0163 -12.984,29 -29,29 H 29 C 12.9837,58 0,45.0163 0,29 0,12.9837 12.9837,0 29,0 Z m 0,2.8065 C 14.5337,2.8065 2.8065,14.5337 2.8065,29 2.8065,43.4663 14.5337,55.1936 29,55.1936 h 83.726 c 14.466,0 26.193,-11.7273 26.193,-26.1936 0,-14.4663 -11.727,-26.1935 -26.193,-26.1935 z"
     fill="#394149"
     id="path1440" />
  <path
     fill-rule="evenodd"
     clip-rule="evenodd"
     d="m 119.597,44.1597 c 2.106,-3.7388 3.497,-9.0929 3.497,-15.1597 0,-6.0668 -1.391,-11.4208 -3.497,-15.1597 -2.156,-3.826 -4.695,-5.4209 -6.871,-5.4209 -2.176,0 -4.716,1.5949 -6.871,5.4209 -2.106,3.7389 -3.497,9.0929 -3.497,15.1597 0,6.0668 1.391,11.4209 3.497,15.1597 2.155,3.8261 4.695,5.421 6.871,5.421 2.176,0 4.715,-1.5949 6.871,-5.421 z m -6.871,8.2274 c 7.276,0 13.175,-10.4707 13.175,-23.3871 0,-12.9163 -5.899,-23.3871 -13.175,-23.3871 -7.276,0 -13.175,10.4708 -13.175,23.3871 0,12.9164 5.899,23.3871 13.175,23.3871 z"
     fill="#394149"
     id="path1442" />
  <path
     fill-rule="evenodd"
     clip-rule="evenodd"
     d="M 111.323,50.2043 V 7.328 h 2.806 v 42.8763 z"
     fill="#394149"
     id="path1444" />
  <path
     d="m 70.7299,18.4544 c 0.6045,-0.0085 1.1185,-0.1215 1.1101,-0.7429 v -0.0932 c 0.0084,-0.6186 -0.5056,-0.7316 -1.1101,-0.74 -0.6072,0.0084 -1.1213,0.1214 -1.1128,0.74 v 0.0932 c -0.0085,0.6214 0.5056,0.7344 1.1128,0.7429 z"
     fill="#394149"
     id="path1446" />
  <path
     d="m 48.3058,16.8811 c 0.1808,0 0.3248,0.144 0.3248,0.3248 0,0.0876 -0.0311,0.1638 -0.096,0.2288 -0.0622,0.0621 -0.1384,0.0932 -0.2288,0.0932 h -1.8049 v -0.6468 z"
     fill="#394149"
     id="path1448" />
  <path
     d="m 58.7905,16.8726 0.5198,1.1214 H 58.268 Z"
     fill="#394149"
     id="path1450" />
  <path
     d="M 82.5,17.994 81.9801,16.8726 81.4576,17.994 Z"
     fill="#394149"
     id="path1452" />
  <path
     d="m 45.0566,40.4855 -0.7682,-1.6576 -0.7725,1.6576 z"
     fill="#394149"
     id="path1454" />
  <path
     d="m 62.297,41.0367 c 0.5678,0 0.8893,-0.4635 0.8893,-1.0272 0,-0.5678 -0.3215,-1.0271 -0.8893,-1.0271 h -2.3967 v 2.0543 z"
     fill="#394149"
     id="path1456" />
  <path
     d="m 69.2574,38.8279 0.7683,1.6576 h -1.5408 z"
     fill="#394149"
     id="path1458" />
  <path
     d="m 79.0738,39.3206 c 0,-0.2672 -0.2129,-0.4802 -0.4801,-0.4802 h -2.6681 v 0.9562 h 2.6681 c 0.1336,0 0.2463,-0.0459 0.3382,-0.1378 0.096,-0.096 0.1419,-0.2088 0.1419,-0.3382 z"
     fill="#394149"
     id="path1460" />
  <path
     d="m 87.421,40.0095 c 0,0.5637 -0.322,1.0272 -0.89,1.0272 h -2.397 v -2.0543 h 2.397 c 0.568,0 0.89,0.4593 0.89,1.0271 z"
     fill="#394149"
     id="path1462" />
  <path
     d="m 32.1274,23.118 2.7846,6.4292 2.9211,-6.4292 h 4.6274 v 10.7153 h -3.4671 v -5.7876 l -2.5389,5.7876 h -3.1123 l -2.5116,-5.7876 v 5.7876 H 27.3499 V 23.118 Z"
     fill="#394149"
     id="path1464" />
  <path
     d="m 56.6667,33.8333 v -2.6618 h -7.685 v -1.3923 h 7.3711 v -2.6071 h -7.3711 v -1.3787 h 7.5895 V 23.118 H 45.3781 v 10.7153 z"
     fill="#394149"
     id="path1466" />
  <path
     d="m 64.8445,33.9971 c -2.2796,0 -4.1769,-0.6825 -5.2416,-2.0612 -0.6279,-0.8053 -1.0101,-2.0202 -1.0101,-3.4398 0,-1.2831 0.3276,-2.4297 1.0374,-3.3442 1.0783,-1.3378 3.0303,-2.225 5.9378,-2.225 3.3442,0 5.3098,1.0237 6.1561,2.7437 0.1206,0.2496 0.2085,0.5591 0.2605,0.8392 0.0304,0.1639 0.0485,0.3179 0.0535,0.4439 h -3.5354 c -0.0409,-0.1911 -0.232,-0.4778 -0.4777,-0.6825 -0.3822,-0.3413 -1.2012,-0.6143 -2.3888,-0.6143 -1.3241,0 -2.225,0.2594 -2.7573,0.86 -0.3686,0.4231 -0.5597,1.0647 -0.5597,2.0065 0,0.9009 0.1911,1.5015 0.5187,1.9247 0.4914,0.5733 1.406,0.9418 2.8256,0.9418 1.365,0 2.4161,-0.4095 2.8119,-0.8736 0.0682,-0.0787 0.1304,-0.1775 0.1826,-0.2795 0.0837,-0.1633 0.1419,-0.3347 0.1587,-0.4439 H 65.0083 V 27.486 h 7.1253 v 6.3473 h -2.9347 l -0.0956,-1.0374 c -0.1283,0.1062 -0.2675,0.2072 -0.4179,0.3021 -0.8742,0.5514 -2.129,0.8991 -3.8409,0.8991 z"
     fill="#394149"
     id="path1468" />
  <path
     d="m 62.7631,28.5234 c 0,-0.8907 0.1821,-1.4058 0.4493,-1.7135 0.4019,-0.4523 1.1352,-0.7091 2.4238,-0.7091 1.1458,0 1.8314,0.2678 2.0931,0.5015 l 0.0057,0.005 0.0058,0.0049 c 0.09,0.075 0.1723,0.1674 0.2345,0.2575 0.0615,0.089 0.0861,0.1508 0.0922,0.1724 h -3.5031 v 3.1947 h 3.5659 c -0.1277,0.1443 -0.4018,0.3244 -0.8373,0.4691 -0.4335,0.144 -0.9898,0.2401 -1.6295,0.2401 -1.3488,0 -2.1074,-0.3491 -2.4813,-0.7785 -0.2444,-0.3204 -0.4191,-0.8118 -0.4191,-1.6441 z"
     fill="#394149"
     id="path1470" />
  <path
     d="m 80.3902,29.0077 1.017,-1.9416 0.9608,1.9416 z"
     fill="#394149"
     id="path1472" />
  <path
     fill-rule="evenodd"
     clip-rule="evenodd"
     d="m 84.243,31.854 0.942,1.9793 H 89.13 L 83.724,23.118 h -4.4087 l -5.7194,10.7153 h 3.863 l 0.9964,-1.9793 z m -4.5865,-2.4024 1.3514,-2.5798 0.4095,-0.9828 0.3822,0.9691 1.2834,2.5935 z"
     fill="#394149"
     id="path1474" />
  <path
     fill-rule="evenodd"
     clip-rule="evenodd"
     d="m 29,52.3871 c -7.3676,0 -13.9395,-3.4069 -18.2262,-8.7311 H 23.0752 V 42.0968 H 9.6212 C 7.6141,39.1328 6.2692,35.6839 5.7988,31.9624 H 23.0752 V 30.4033 H 5.6543 C 5.6268,29.939 5.6129,29.4711 5.6129,29 c 0,-3.0866 0.5979,-6.0334 1.6843,-8.7312 h 15.778 V 18.7097 H 7.9926 c 1.6528,-3.3678 4.0915,-6.28 7.0772,-8.4973 H 98.796 C 93.057,14.4742 89.339,21.3028 89.339,29 c 0,4.8526 1.478,9.3601 4.008,13.0968 h -1.436 v 1.5591 h 2.588 c 4.242,5.2679 10.72,8.6588 17.993,8.73 v 0.0012 z M 68.137,17.5279 c -0.0057,-1.4377 1.1637,-1.8501 2.5929,-1.8529 1.4292,0 2.5901,0.418 2.5901,1.8529 v 0.2768 c 0.0057,1.4349 -1.1637,1.8501 -2.5901,1.8529 -1.4292,-0.0028 -2.5986,-0.418 -2.5929,-1.8529 z m -41.8091,2.0365 v -3.7962 h 1.4801 v 3.7962 z m 4.3018,-3.7962 1.6665,2.0111 v -2.0111 h 1.4829 v 3.7962 h -1.6665 l -2.0393,-2.3189 v 2.3189 h -1.4801 v -3.7962 z m 6.9032,3.8019 v -2.593 h 1.7597 v -1.2032 h -4.9994 v 1.2032 h 1.7597 v 2.593 z m 6.6999,0 h -4.443 v -3.7962 h 4.443 v 0.9716 h -2.963 v 0.4858 h 2.963 v 0.8785 h -2.963 v 0.4858 h 2.963 z m 0.788,-3.7991 v 3.7962 h 1.4801 v -0.9264 h 1.3219 l 0.7146,0.9264 h 1.5761 l -0.8276,-1.0648 c 0.2486,-0.1158 0.4491,-0.291 0.5988,-0.5197 0.1525,-0.2317 0.2288,-0.4915 0.2288,-0.7768 0.0113,-0.7852 -0.6525,-1.4433 -1.4349,-1.4349 z m 7.5896,-0.0028 1.6665,2.0111 v -2.0111 h 1.4829 v 3.7962 H 54.0933 L 52.054,17.2455 v 2.3189 h -1.4801 v -3.7962 z m 3.2624,3.8019 h 1.6665 l 0.2994,-0.6497 h 1.9009 l 0.2994,0.6497 h 1.6665 L 59.669,15.7739 h -1.7597 z m 8.0923,-2.593 v 2.593 h -1.48 v -2.593 h -1.7597 v -1.2032 h 4.9994 v 1.2032 z m 2.2568,-1.2089 v 3.7962 H 67.702 V 15.7682 Z M 77.4665,17.7793 75.8,15.7682 h -2.0365 v 3.7962 h 1.4801 v -2.3189 l 2.0393,2.3189 h 1.6665 v -3.7962 h -1.4829 z m 3.2623,1.7908 h -1.6664 l 2.0365,-3.7962 h 1.7601 l 2.036,3.7962 h -1.666 l -0.3,-0.6497 h -1.9007 z m 4.2822,-3.8019 v 3.7962 h 4.443 V 18.3611 H 86.491 V 15.7682 Z M 28.6472,39.045 c 0,-0.4467 0.8351,-0.547 1.5157,-0.547 0.6848,0 1.2651,0.1044 1.5157,0.547 h 2.2923 c -0.2088,-1.7537 -1.8414,-1.975 -3.808,-1.9875 -1.9708,0 -3.808,0.3842 -3.808,1.9875 -0.0042,1.4001 2.1871,1.5111 3.7523,1.5904 l 0.0098,5e-4 c 0.881,0.0417 1.5616,0.0793 1.5616,0.3256 0,0.4343 -0.8351,0.547 -1.5157,0.547 -0.6848,0 -1.2652,-0.1127 -1.5157,-0.547 h -2.2923 c 0.2088,1.7412 1.8414,1.9792 3.808,1.9834 1.9708,0 3.808,-0.38 3.808,-1.9834 0.0041,-1.4042 -2.1872,-1.5152 -3.7524,-1.5945 l -0.0097,-5e-4 c -0.881,-0.0417 -1.5616,-0.0751 -1.5616,-0.3215 z m 10.1797,3.7704 v -3.833 h 2.6013 v -1.7787 h -7.3905 v 1.7787 h 2.6013 v 3.833 z m 3.6117,0 h -2.4635 l 3.0105,-5.6117 h 2.6013 l 3.0105,5.6117 h -2.4635 l -0.4426,-0.9603 h -2.8101 z m 11.804,-2.6472 -2.4635,-2.9729 h -3.0105 v 5.6118 h 2.1879 v -3.428 l 3.0147,3.428 h 2.4635 v -5.6118 h -2.1921 z m 3.4697,2.6472 v -5.6117 h 4.9939 c 1.5407,-0.0209 2.6848,1.2735 2.6722,2.8058 0.0126,1.5241 -1.1315,2.8268 -2.6722,2.8059 z m 7.2319,0 h 2.4635 l 0.4426,-0.9603 h 2.81 l 0.4426,0.9603 h 2.4635 L 70.556,37.2037 h -2.6013 z m 8.7934,-0.0041 v -5.6118 h 5.4072 c 1.1566,-0.0125 2.1378,0.9603 2.1211,2.1211 0,0.4217 -0.1127,0.8059 -0.3382,1.1482 -0.2213,0.3383 -0.5177,0.5971 -0.8852,0.7683 l 1.2234,1.5742 H 78.936 l -1.0563,-1.3696 h -1.9541 v 1.3696 z m 8.2089,-5.6076 v 5.6117 H 86.94 c 1.541,0.0209 2.685,-1.2818 2.673,-2.8059 0.012,-1.5323 -1.132,-2.8267 -2.673,-2.8058 z m -43.397,-2.9265 h 4.3549 V 22.6741 h -5.3572 l -2.6255,5.7786 -2.5028,-5.7786 H 26.906 v 11.6031 h 4.3685 v -4.0935 l 1.7765,4.0935 h 3.6935 l 1.805,-4.1146 z m 6.3847,0 h 12.1764 v -3.5496 h -7.685 v -0.5045 h 7.3711 v -3.4949 h -7.3711 v -0.4909 h 7.5895 V 22.6741 H 44.9342 Z m 23.8598,0 h 3.7836 v -7.2351 h -0.0917 l -0.0043,-0.1062 c -0.0156,-0.391 -0.1357,-0.9985 -0.3577,-1.4583 l -7e-4,-0.0015 -8e-4,-0.0015 C 71.1676,23.534 68.9879,22.483 65.568,22.483 c -2.9922,0 -5.094,0.9147 -6.2834,2.3903 l -0.0026,0.0031 -0.0025,0.0033 c -0.783,1.0088 -1.1306,2.2577 -1.1306,3.6164 0,1.4913 0.4003,2.81 1.1033,3.7121 1.1817,1.5293 3.2401,2.2328 5.5923,2.2328 1.6535,0 2.9375,-0.314 3.886,-0.8527 z m 8.9384,0 0.9964,-1.9793 h 5.2342 l 0.941,1.9793 h 4.947 L 83.998,22.6741 h -4.949 l -6.1932,11.6031 z m 12.0736,14.29 H 26.2715 V 47.008 H 89.806 Z"
     fill="#394149"
     id="path1476" />
  <path
     d="M 101.186,8.6532 C 104.528,6.754 108.383,5.6543 112.492,5.614 V 5.6129 H 29 c -4.1963,0 -8.1345,1.1051 -11.5394,3.0403 z"
     fill="#394149"
     id="path1478" />
  <path
     d="m 112.726,49.5806 c 11.366,0 20.58,-9.2143 20.58,-20.5806 0,-11.3664 -9.214,-20.5807 -20.58,-20.5807 -7.618,0 -14.269,4.1388 -17.828,10.2904 h -2.987 v 1.5591 h 2.173 C 92.84,22.9194 92.145,25.8785 92.145,29 c 0,4.9754 1.766,9.5384 4.704,13.0968 H 93.347 C 90.817,38.3601 89.339,33.8526 89.339,29 c 0,-12.9164 10.47,-23.3871 23.387,-23.3871 12.916,0 23.387,10.4707 23.387,23.3871 0,12.9163 -10.471,23.3871 -23.387,23.3871 -7.368,0 -13.94,-3.4069 -18.227,-8.7312 h 3.778 c 3.716,3.6637 8.818,5.9247 14.449,5.9247 z"
     fill="#394149"
     id="path1480" />
  <path
     d="M 118.905,42.0967 H 94.562 v -2.8064 h 25.441 c -0.325,1.0056 -0.694,1.9443 -1.098,2.8064 z"
     fill="#394149"
     id="path1482" />
  <path
     d="m 120.614,42.0967 h 10.432 v -2.8064 h -9.408 c -0.302,0.9919 -0.646,1.93 -1.024,2.8064 z"
     fill="#394149"
     id="path1484" />
  <path
     d="M 121.509,30.4032 H 90.742 v -2.8065 h 30.767 c 0.017,0.4625 0.026,0.9304 0.026,1.4033 0,0.4729 -0.009,0.9408 -0.026,1.4032 z"
     fill="#394149"
     id="path1486" />
  <path
     d="m 123.069,30.4032 h 11.68 v -2.8065 h -11.68 c 0.017,0.4632 0.025,0.9311 0.025,1.4033 0,0.4722 -0.008,0.9401 -0.025,1.4032 z"
     fill="#394149"
     id="path1488" />
  <path
     d="M 120.004,18.7097 H 94.562 v -2.8064 h 24.343 c 0.404,0.8621 0.773,1.8008 1.099,2.8064 z"
     fill="#394149"
     id="path1490" />
  <path
     d="m 121.638,18.7097 h 9.408 v -2.8064 h -10.432 c 0.378,0.8764 0.722,1.8145 1.024,2.8064 z"
     fill="#394149"
     id="path1492" />
</svg>
