<svg
   xmlns="http://www.w3.org/2000/svg"
   viewBox="0 0 148.978 14.091"
   id="svg720">
  <path
     d="m 74.193,13.889 h -5.12 V 0.201 h 5.12 z m -4.62,-0.5 h 4.12 V 0.701 h -4.12 z m 11.744,0.5 H 76.3 V 0.201 h 10.482 a 6.288,6.288 0 0 1 4.214,1.188 4.609,4.609 0 0 1 1.479,3.817 4.863,4.863 0 0 1 -1.089,3.375 c -0.917,1.052 -2.443,1.594 -4.535,1.613 -0.527,0.014 -4.476,0 -5.531,0 z m -4.52,-0.5 h 4.02 v -3.7 h 0.251 c 0.051,0 5.178,0.016 5.771,0 1.949,-0.017 3.35,-0.5 4.169,-1.443 v 0 A 4.391,4.391 0 0 0 91.968,5.205 4.145,4.145 0 0 0 90.668,1.772 5.827,5.827 0 0 0 86.775,0.7 H 76.8 Z M 85.72,7.119 H 80.783 V 3.393 h 4.97 a 2.111,2.111 0 0 1 1.9,0.727 2,2 0 0 1 0.282,1.153 2.123,2.123 0 0 1 -0.235,1.082 2.165,2.165 0 0 1 -1.98,0.76 z m -4.437,-0.5 h 4.437 c 0.82,0 1.328,-0.171 1.553,-0.523 A 1.66,1.66 0 0 0 87.436,5.273 1.552,1.552 0 0 0 87.25,4.415 L 87.244,4.406 C 87.006,4.056 86.533,3.893 85.753,3.893 h -4.47 z m 20.317,7.472 c -4.49,0 -7.17,-1.115 -8.191,-3.408 A 5.935,5.935 0 0 1 93.071,9.309 L 93.027,9.021 h 5.342 l 0.035,0.21 a 1.393,1.393 0 0 0 0.264,0.586 c 0.211,0.255 0.915,0.683 3.251,0.683 2.808,0 2.808,-0.493 2.808,-0.758 0,-0.447 -0.325,-0.6 -2.615,-0.844 L 101.677,8.857 C 100.815,8.776 99.725,8.673 99.227,8.63 95.027,8.25 93.152,6.945 93.152,4.4 c 0,-2.673 3.191,-4.4 8.13,-4.4 4.029,0 6.625,1.062 7.714,3.159 a 4.863,4.863 0 0 1 0.513,1.562 l 0.035,0.281 h -5.348 l -0.022,-0.226 a 0.855,0.855 0 0 0 -0.216,-0.474 c -0.2,-0.268 -0.832,-0.711 -2.794,-0.711 -2.409,0 -2.741,0.308 -2.741,0.64 0,0.443 0.761,0.6 3.2,0.861 1.017,0.083 2.652,0.251 3.212,0.319 3.521,0.382 5.092,1.655 5.092,4.129 10e-4,2.075 -1.444,4.551 -8.327,4.551 z m -7.989,-4.57 a 4.557,4.557 0 0 0 0.257,0.964 c 0.93,2.089 3.46,3.106 7.732,3.106 3.572,0 7.831,-0.7 7.831,-4.051 0,-2.193 -1.39,-3.279 -4.649,-3.632 -0.56,-0.068 -2.185,-0.235 -3.2,-0.319 -2.6,-0.282 -3.657,-0.432 -3.657,-1.358 0,-0.958 1.139,-1.14 3.241,-1.14 1.661,0 2.734,0.3 3.189,0.905 a 1.487,1.487 0 0 1 0.276,0.506 h 4.334 a 4.508,4.508 0 0 0 -0.41,-1.111 c -1,-1.919 -3.443,-2.891 -7.271,-2.891 -4.635,0 -7.63,1.531 -7.63,3.9 0,2.26 1.681,3.376 5.619,3.732 0.5,0.043 1.589,0.146 2.453,0.228 l 0.438,0.041 c 2.127,0.224 3.065,0.364 3.065,1.341 0,1.052 -1.213,1.258 -3.308,1.258 -1.938,0 -3.162,-0.291 -3.635,-0.864 A 1.852,1.852 0 0 1 97.962,9.521 Z m 25.816,4.553 c -5.22,0 -8.1,-2.111 -8.1,-5.945 V 0.201 h 5.052 v 7.928 c 0,1.315 1.177,2.069 3.228,2.069 1.96,0 3.177,-0.787 3.177,-2.052 V 0.201 h 5 v 8.348 c 0.005,3.511 -3.044,5.525 -8.36,5.525 z m -7.6,-13.373 v 7.428 c 0,4.738 4.758,5.445 7.6,5.445 2.938,0 7.865,-0.653 7.865,-5.025 V 0.701 h -4 v 7.445 c 0,1.55 -1.444,2.552 -3.677,2.552 -2.334,0 -3.728,-0.96 -3.728,-2.569 V 0.701 Z m 37.145,13.188 h -4.768 v -6.18 l -2.704,6.18 h -4.159 l -2.676,-6.168 v 6.168 H 129.88 V 0.201 h 6.294 l 3.27,7.547 3.428,-7.547 h 6.106 z m -4.268,-0.5 h 3.768 V 0.701 h -5.282 l -3.762,8.279 -3.586,-8.279 h -5.466 v 12.688 h 3.785 V 5.315 l 3.5,8.077 h 3.5 l 3.537,-8.065 z M 4.554,0.451 H 0 v 13.188 h 12.584 v -3.511 h -8.03 z m 17.222,-0.3 c -5.813,0 -8.87,2.755 -8.87,6.8 0,4.57 3.209,6.888 8.87,6.888 6.232,0 8.853,-2.688 8.853,-6.888 0,-4.265 -2.957,-6.802 -8.853,-6.802 z m -0.017,3.427 a 9.432,9.432 0 0 1 1.184,0.069 L 17.852,8.738 A 4.041,4.041 0 0 1 17.508,7.006 c 0,-2.069 1.042,-3.43 4.251,-3.43 z m 0.017,6.888 a 9.459,9.459 0 0 1 -1.141,-0.064 l 5.1,-5.1 a 3.973,3.973 0 0 1 0.325,1.7 c 0,2.013 -0.96,3.462 -4.284,3.462 z m 17.876,-1.8 h 4.687 a 2.14,2.14 0 0 1 -0.42,0.89 4.855,4.855 0 0 1 -3.461,1.075 4.412,4.412 0 0 1 -3.477,-1.159 3.733,3.733 0 0 1 -0.639,-2.369 3.647,3.647 0 0 1 0.689,-2.469 c 0.655,-0.74 1.764,-1.059 3.394,-1.059 a 4.626,4.626 0 0 1 2.94,0.756 1.8,1.8 0 0 1 0.588,0.84 H 48.3 A 4.48,4.48 0 0 0 47.913,3.592 C 46.872,1.475 44.452,0.215 40.337,0.215 c -3.579,0 -5.981,1.092 -7.308,2.739 A 6.569,6.569 0 0 0 31.752,7.07 6.932,6.932 0 0 0 33,11.305 c 1.311,1.7 3.646,2.536 6.452,2.536 a 8.062,8.062 0 0 0 5.241,-1.478 l 0.118,1.276 h 3.611 V 5.827 h -8.77 z M 58.671,0.148 c -5.812,0 -8.87,2.755 -8.87,6.8 0,4.57 3.208,6.888 8.87,6.888 6.233,0 8.854,-2.688 8.854,-6.888 0,-4.262 -2.957,-6.799 -8.854,-6.799 z m -0.016,3.427 a 9.607,9.607 0 0 1 1.153,0.066 L 54.737,8.715 A 4.057,4.057 0 0 1 54.404,7.006 C 54.4,4.937 55.446,3.576 58.655,3.576 Z m 0.016,6.888 A 9.432,9.432 0 0 1 57.5,10.395 l 5.117,-5.118 a 3.952,3.952 0 0 1 0.337,1.727 c 0.002,2.011 -0.954,3.46 -4.283,3.46 z"
     fill="#394149"
     id="path718" />
</svg>
