<svg
   xmlns="http://www.w3.org/2000/svg"
   viewBox="0 0 158.578 35.452999"
   id="svg801">
  <path
     d="M 0,0 V 35.453 H 158.578 V 0 Z m 156.578,33.453 h -81 V 2 h 81 z"
     fill="#394149"
     id="path781" />
  <path
     d="M 8.429,23.666 V 11.879 h 4.068 v 8.648 h 7.176 v 3.139 z"
     fill="#ffffff"
     id="path783" />
  <path
     d="m 35.711,17.69 c 0,3.753 -2.342,6.156 -7.913,6.156 -5.06,0 -7.928,-2.072 -7.928,-6.156 0,-3.619 2.734,-6.081 7.928,-6.081 5.275,0 7.913,2.267 7.913,6.081 z m -4.084,0.045 c 0,-1.7 -0.706,-3.063 -3.844,-3.063 -2.868,0 -3.8,1.216 -3.8,3.063 0,1.877 0.855,3.093 3.813,3.093 2.977,0 3.831,-1.291 3.831,-3.093 z"
     fill="#ffffff"
     id="path785" />
  <path
     d="M 48.295,23.666 48.19,22.524 a 7.2,7.2 0 0 1 -4.685,1.322 c -2.507,0 -4.595,-0.751 -5.766,-2.267 a 6.2,6.2 0 0 1 -1.111,-3.784 5.861,5.861 0 0 1 1.145,-3.679 c 1.185,-1.471 3.333,-2.447 6.531,-2.447 3.679,0 5.841,1.126 6.771,3.018 a 4.039,4.039 0 0 1 0.346,1.411 h -3.892 a 1.6,1.6 0 0 0 -0.525,-0.751 4.138,4.138 0 0 0 -2.628,-0.675 3.87,3.87 0 0 0 -3.033,0.946 3.259,3.259 0 0 0 -0.615,2.207 3.336,3.336 0 0 0 0.57,2.117 3.945,3.945 0 0 0 3.108,1.036 4.34,4.34 0 0 0 3.093,-0.961 1.886,1.886 0 0 0 0.375,-0.8 h -4.188 v -2.533 h 7.837 v 6.982 z"
     fill="#ffffff"
     id="path787" />
  <path
     d="m 68.505,17.69 c 0,3.753 -2.343,6.156 -7.913,6.156 -5.06,0 -7.928,-2.072 -7.928,-6.156 0,-3.619 2.734,-6.081 7.928,-6.081 5.271,0 7.913,2.267 7.913,6.081 z m -4.084,0.045 c 0,-1.7 -0.706,-3.063 -3.844,-3.063 -2.868,0 -3.8,1.216 -3.8,3.063 0,1.877 0.856,3.093 3.813,3.093 2.976,0 3.831,-1.291 3.831,-3.093 z"
     fill="#ffffff"
     id="path789" />
  <path
     d="M 82.43,23.621 V 11.834 h 2.9 v 11.787 z"
     fill="#394149"
     id="path791" />
  <path
     d="m 100.222,18.696 c -0.735,0.961 -2,1.4 -3.783,1.411 -0.376,0 -5.361,-0.015 -5.361,-0.015 v 3.529 H 88.24 V 11.834 h 8.2 a 4.707,4.707 0 0 1 3.648,1.186 4.344,4.344 0 0 1 0.886,2.958 4.248,4.248 0 0 1 -0.752,2.718 z m -2.327,-3.843 c -0.3,-0.45 -0.947,-0.7 -2.042,-0.7 h -4.79 v 3.588 h 4.759 c 1.171,0 1.788,-0.24 2.073,-0.706 a 1.952,1.952 0 0 0 0.21,-1.066 2.279,2.279 0 0 0 -0.21,-1.116 z"
     fill="#394149"
     id="path793" />
  <path
     d="m 109.337,23.801 c -5.346,0 -6.982,-2 -6.982,-3.979 h 3.033 c 0,0.976 1.336,1.712 4.084,1.712 2.732,0 3.453,-0.481 3.453,-1.262 0,-0.871 -0.54,-1.141 -3.078,-1.426 -0.5,-0.045 -1.861,-0.21 -2.372,-0.285 -3.6,-0.406 -4.986,-1.472 -4.986,-3.379 0,-2.012 2.028,-3.528 6.427,-3.528 4.775,0 6.607,1.877 6.607,3.829 h -3 c 0,-0.991 -1.126,-1.562 -3.784,-1.562 -2.733,0 -3.318,0.375 -3.318,1.111 0,0.766 0.6,1.006 3.5,1.351 0.661,0.091 2.132,0.256 2.537,0.3 3.064,0.315 4.445,1.426 4.445,3.393 -0.005,2.343 -2.107,3.725 -6.566,3.725 z"
     fill="#394149"
     id="path795" />
  <path
     d="m 124.443,23.786 c -3.918,0 -6.471,-1.547 -6.471,-4.8 v -7.152 h 2.867 v 7.192 c 0,1.487 1.217,2.477 3.724,2.477 2.267,0 3.619,-0.93 3.619,-2.477 v -7.192 h 2.838 v 7.419 c 0,2.957 -2.373,4.533 -6.577,4.533 z"
     fill="#394149"
     id="path797" />
  <path
     d="m 146.56,23.621 v -7.868 l -3.679,7.868 h -2.792 l -3.574,-7.868 v 7.868 h -2.7 V 11.834 h 3.658 l 4.054,8.979 4.144,-8.979 h 3.6 v 11.787 z"
     fill="#394149"
     id="path799" />
</svg>
