<svg
   xmlns="http://www.w3.org/2000/svg"
   id="logoipsum"
   data-name="Layer 1"
   viewBox="0 0 126.29 32.919998">
  <title
     id="title418">logo-5</title>
  <path
     d="m 20.48,7.83 h 2 v 13.92 h 6 v 2 h -8 z m 14.23,0 a 6,6 0 1 1 -6,6 6,6 0 0 1 6,-6 z m 0,10 a 4,4 0 1 0 -4,-4 4,4 0 0 0 4,3.98 z m -4,3.94 h 8 v 2 h -8 z m 25.6,2 h -2 v -1.43 a 7.69,7.69 0 0 1 -4.4,1.39 8,8 0 1 1 6,-13.23 l -1.47,1.31 a 6,6 0 1 0 -4.46,10 5.77,5.77 0 0 0 4.38,-2 h -5.4 v -2 h 7.37 z m 7.36,-15.9 a 6,6 0 1 1 -6,6 6,6 0 0 1 6.02,-6.04 z m 0,10 a 4,4 0 1 0 -4,-4 4,4 0 0 0 4.02,3.94 z m -4,3.94 h 8 v 2 h -8 z M 71.8,7.83 h 2 v 15.9 h -2 z m 4.77,0 h 2 a 1.47,1.47 0 0 1 0.31,0 6,6 0 1 1 0,11.93 h -0.31 v 4 h -2 z m 2,2 v 7.91 h 0.31 a 4,4 0 1 0 0,-7.93 1.47,1.47 0 0 0 -0.32,0.07 z M 92.98,8.98 91.5,10.15 a 1.94,1.94 0 0 0 -3.33,1.13 v 0.16 c 0,0.88 0.61,1.47 1.8,1.55 4.58,0.28 6.68,2.43 6.68,5.27 v 0.18 a 5.9,5.9 0 0 1 -10.17,3.42 l 1.53,-1.18 a 3.6,3.6 0 0 0 2.8,1.14 3.74,3.74 0 0 0 3.92,-3.38 V 18.3 c 0,-2.67 -2.62,-3.16 -4.89,-3.38 -2.1,-0.2 -3.61,-1.51 -3.61,-3.4 v -0.08 a 3.85,3.85 0 0 1 3.93,-3.56 3.74,3.74 0 0 1 2.81,1.15 z m 11.5,12.72 c 2.49,0 4.46,-2.69 4.46,-6 v -8 h 2 v 8 c 0,4.4 -2.88,7.95 -6.42,7.95 -3.54,0 -6.42,-3.55 -6.42,-7.95 v -8 h 2 v 8 c -0.08,3.36 1.89,6.05 4.37,6.05 z m 21.81,2 h -2 v -9.9 l -4.61,6 -4.61,-6 v 9.93 h -2 V 7.83 l 6.6,8.69 6.6,-8.69 z"
     style="fill:#394149"
     id="path420" />
  <path
     d="M 10.88,5.44 A 5.44,5.44 0 0 0 0,5.44 v 16.45 l 4.48,3.21 v 7.82 H 6.4 V 25.1 l 4.48,-3.21 z M 8.96,14.64 6.4,17.2 v -2.4 l 2.56,-2.56 z m -7,-2.4 2.56,2.56 v 2.4 L 1.96,14.64 Z m 7,-2.72 -3.52,3.52 -3.52,-3.6 V 7.04 L 5.44,10.56 8.96,7.04 Z M 5.44,1.92 a 3.54,3.54 0 0 1 3.4,2.61 L 5.44,7.92 2.04,4.53 a 3.54,3.54 0 0 1 3.4,-2.65 z m -3.52,19 v -3.6 l 2.56,2.56 v 2.86 z m 4.48,1.83 v -2.87 l 2.56,-2.56 v 3.59 z"
     style="fill:#394149"
     id="path422" />
</svg>
