<svg
   xmlns="http://www.w3.org/2000/svg"
   viewBox="0 0 76 66.3564"
   fill="none"
   id="svg1567">
  <path
     d="m 18.9638,58.5853 h -3.5332 c -0.0127,0.2669 -0.0762,0.521 -0.2288,0.7371 -0.4194,0.61 -1.3726,0.8769 -2.707,0.8769 -1.1438,0 -2.2495,-0.2796 -2.7452,-1.0167 -0.2415,-0.3431 -0.3559,-0.8134 -0.3559,-1.4997 0,-0.6354 0.089,-1.1438 0.3177,-1.487 0.4449,-0.699 1.4235,-1.0421 2.7707,-1.0421 1.4869,0 2.3003,0.394 2.6689,0.9277 0.1525,0.2161 0.2415,0.5084 0.2542,0.7372 h 3.5332 c -0.0127,-0.3177 -0.0763,-0.9024 -0.2796,-1.4234 -0.5974,-1.487 -2.2242,-2.885 -6.1386,-2.885 -2.8723,0 -4.7024,0.7625 -5.7192,2.0334 -0.6354,0.7753 -0.9532,1.8302 -0.9532,3.1011 0,1.398 0.3432,2.491 1.0168,3.279 0.9786,1.1819 2.796,1.8809 5.5921,1.8809 3.495,0 5.3378,-0.9532 6.1385,-2.6689 0.2542,-0.4957 0.3305,-1.1947 0.3686,-1.5505 z"
     fill="#394149"
     id="path1551" />
  <path
     d="M 29.8772,62.6522 V 59.996 h -6.075 V 52.6755 H 20.358 v 9.9767 z"
     fill="#394149"
     id="path1553" />
  <path
     d="m 41.7409,62.6522 v -2.4783 h -7.1553 v -1.2963 h 6.863 v -2.4275 h -6.863 v -1.2836 h 7.0664 v -2.491 H 31.2304 v 9.9767 z"
     fill="#394149"
     id="path1555" />
  <path
     fill-rule="evenodd"
     clip-rule="evenodd"
     d="m 46.8253,60.8094 h 5.3887 l 0.877,1.8428 h 3.673 l -5.033,-9.9767 h -4.105 l -5.3252,9.9767 h 3.5967 z m 4.3087,-2.2368 h -3.1903 l 1.2583,-2.4021 0.3812,-0.9151 0.3559,0.9024 z"
     fill="#394149"
     id="path1557" />
  <path
     fill-rule="evenodd"
     clip-rule="evenodd"
     d="m 69.536,55.713 c 0,-0.9024 -0.216,-1.5506 -0.674,-2.0208 -0.597,-0.6355 -1.627,-1.0167 -3.202,-1.0167 h -7.944 v 9.9767 h 3.394 v -3.5204 h 3.088 l 2.478,3.5204 h 3.788 l -3.012,-4.0669 c 0.673,-0.1017 1.22,-0.5084 1.575,-0.9914 0.318,-0.4448 0.509,-1.1057 0.509,-1.8809 z m -3.305,0.3177 c 0,0.1652 -0.025,0.3686 -0.114,0.5211 -0.127,0.2542 -0.457,0.3559 -1.004,0.3559 h -3.991 v -1.8175 h 3.927 c 0.534,0 0.89,0.089 1.068,0.4194 0.089,0.1271 0.114,0.3305 0.114,0.5211 z"
     fill="#394149"
     id="path1559" />
  <path
     d="m 50.682,7.7584 c 0.089,-0.1525 0.114,-0.3558 0.114,-0.5211 0,-0.1906 -0.025,-0.3939 -0.114,-0.521 C 50.504,6.3858 50.148,6.2969 49.6141,6.2969 H 45.687 v 1.8174 h 3.9907 c 0.5463,0 0.8773,-0.1017 1.0043,-0.3559 z"
     fill="#394149"
     id="path1561" />
  <path
     d="m 60.732,9.7792 h 3.19 L 62.727,7.3644 62.371,6.4621 61.99,7.3772 Z"
     fill="#394149"
     id="path1563" />
  <path
     fill-rule="evenodd"
     clip-rule="evenodd"
     d="M 8.0353,0 C 3.8749,0 0.453,3.1619 0.0415,7.2137 0.0141,7.4839 0,7.7579 0,8.0353 v 50.2858 c 0,4.4378 3.5975,8.0353 8.0353,8.0353 H 67.965 c 4.438,0 8.035,-3.5975 8.035,-8.0353 V 8.0353 C 76,3.5975 72.403,0 67.965,0 Z M 28.681,31.6085 1.674,22.4745 v 6.5233 l 25.9705,4.0764 c -0.3809,0.8327 -0.4564,1.7064 -0.215,2.5629 0.2042,0.7246 0.63,1.4182 1.2514,2.0487 L 1.674,46.8198 v 1.5769 h 12.5199 l 16.1357,-9.4523 c 0.6428,0.3765 1.3656,0.7009 2.1487,0.9658 l -8.3642,8.4865 h 7.2621 l 3.6042,-7.8795 c 1.7569,0.2757 3.6088,0.2763 5.3695,-1e-4 l 3.6048,7.8796 H 51.217 L 40.9558,37.9859 c -0.5007,0.1694 -1.0345,0.2984 -1.587,0.3851 l -5e-4,10e-5 c -0.6913,0.1085 -1.4119,0.1508 -2.1336,0.1231 -1.2989,-0.0499 -2.5434,-0.3243 -3.5761,-0.7884 -1.0326,-0.4642 -1.8072,-1.0974 -2.2256,-1.8194 -0.4184,-0.7221 -0.4619,-1.5006 -0.125,-2.2371 0.3369,-0.7365 1.0391,-1.398 2.0177,-1.9008 0.9787,-0.5027 2.1898,-0.8242 3.4803,-0.9237 1.2906,-0.0995 2.6025,0.0273 3.7699,0.3646 1.1675,0.3372 2.138,0.8697 2.7888,1.5301 L 74.326,22.2482 V 17.9598 H 66.152 L 45.0007,30.3502 c -0.7181,-0.4207 -1.5412,-0.7793 -2.4455,-1.0625 -0.7026,-0.22 -1.4426,-0.3907 -2.2048,-0.5104 l 4.9479,-10.8175 h -7.6328 v 10.6103 c -0.2261,0 -0.4526,0.0044 -0.6791,0.0131 -0.6809,0.0261 -1.3526,0.0914 -2.006,0.1939 L 30.0325,17.9598 h -8.8138 l 11.2597,11.4244 c -0.2934,0.0992 -0.5792,0.207 -0.8561,0.3233 -1.2044,0.5056 -2.2056,1.1545 -2.9413,1.901 z m 8.9845,3.0386 36.6605,12.399 V 40.4015 Z M 1.674,50.0707 h 72.652 v 8.2504 c 0,3.5132 -2.848,6.3612 -6.361,6.3612 H 8.0353 c -3.5133,0 -6.3613,-2.848 -6.3613,-6.3612 z M 19.5029,3.8821 v 6.1259 c 0,2.6943 -2.4401,3.9907 -6.1385,3.9907 -3.4569,0 -5.9353,-1.2837 -5.9353,-4.3085 V 3.8821 h 3.4442 v 5.8081 c 0,1.0803 0.9278,1.7539 2.6309,1.7539 1.6267,0 2.5926,-0.699 2.5926,-1.7412 V 3.8821 Z m 11.4709,7.3205 v 2.6563 H 21.4546 V 3.8821 h 3.4442 v 7.3205 z M 41.2096,6.3858 V 3.8821 H 29.3011 v 2.5037 h 4.2067 v 7.4731 h 3.4824 V 6.3858 Z M 53.427,4.8988 c 0.457,0.4703 0.673,1.1185 0.673,2.0208 0,0.7753 -0.19,1.4362 -0.508,1.881 -0.356,0.4829 -0.902,0.8896 -1.576,0.9913 l 3.012,4.067 h -3.787 l -2.4784,-3.5205 h -3.0884 v 3.5205 H 42.2809 V 3.8821 h 7.9431 c 1.576,0 2.606,0.3813 3.203,1.0167 z m 6.186,7.1172 h 5.389 l 0.877,1.8429 h 3.673 L 64.519,3.8821 h -4.105 l -5.325,9.9768 h 3.597 z"
     fill="#394149"
     id="path1565" />
</svg>
