<svg
   xmlns="http://www.w3.org/2000/svg"
   viewBox="0 0 104.5222 38.224201"
   fill="none"
   id="svg1173">
  <path
     d="M 62.6927,8.6526 C 59.9495,5.9094 56.6928,3.7333 53.1087,2.2487 49.5245,0.7641 45.6831,0 41.8036,0 37.9241,0 34.0827,0.7641 30.4985,2.2487 26.9144,3.7333 23.6577,5.9094 20.9145,8.6526 l 20.8891,20.889 z"
     fill="#ffd200"
     id="path1165" />
  <path
     d="m 41.8298,29.5717 c 2.7432,2.7432 5.9998,4.9192 9.584,6.4038 3.5841,1.4846 7.4256,2.2487 11.3051,2.2487 3.8793,0 7.7213,-0.7641 11.3053,-2.2487 3.584,-1.4846 6.841,-3.6606 9.584,-6.4038 L 62.7189,8.6826 Z"
     fill="#06e07f"
     id="path1167" />
  <path
     d="m 41.7782,29.5671 c -2.7432,2.7432 -5.9999,4.9192 -9.584,6.4038 -3.5842,1.4846 -7.4256,2.2487 -11.3051,2.2487 -3.8795,0 -7.7209,-0.7641 -11.3051,-2.2487 C 5.9999,34.4863 2.7432,32.3103 0,29.5671 L 20.8891,8.678 Z"
     fill="#e3073c"
     id="path1169" />
  <path
     d="m 62.7443,8.6572 c 2.7429,-2.7432 5.9999,-4.9192 9.5839,-6.4038 3.584,-1.4846 7.426,-2.2487 11.305,-2.2487 3.88,0 7.721,0.7641 11.305,2.2487 3.584,1.4846 6.841,3.6606 9.584,6.4038 l -20.889,20.8891 z"
     fill="#1f84ef"
     id="path1171" />
</svg>
