<svg
   xmlns="http://www.w3.org/2000/svg"
   viewBox="0 0 126.20127 41.429298"
   fill="none"
   id="svg2532">
  <path
     d="m 10.761974,17.2335 c -0.0365,0.8568 -0.0547,1.9416 -0.0547,3.2542 0,1.3126 0.0182,2.4064 0.0547,3.2815 0.0364,0.8569 0.1093,1.5405 0.2187,2.051 0.1276,0.5104 0.3008,0.8659 0.5196,1.0665 0.237,0.2005 0.5469,0.3008 0.9298,0.3008 0.3828,0 0.6836,-0.1003 0.9024,-0.3008 0.237,-0.2006 0.4102,-0.5561 0.5196,-1.0665 0.1276,-0.5105 0.2096,-1.1941 0.2461,-2.051 0.0365,-0.8751 0.0547,-1.9689 0.0547,-3.2815 0,-1.3126 -0.0182,-2.3974 -0.0547,-3.2542 -0.0365,-0.8751 -0.1185,-1.5679 -0.2461,-2.0783 -0.1094,-0.5105 -0.2826,-0.866 -0.5196,-1.0665 -0.2188,-0.2006 -0.5196,-0.3009 -0.9024,-0.3009 -0.3829,0 -0.6928,0.1003 -0.9298,0.3009 -0.2188,0.2005 -0.392,0.556 -0.5196,1.0665 -0.1094,0.5104 -0.1823,1.2032 -0.2187,2.0783 z"
     fill="#394149"
     id="path2504" />
  <path
     fill-rule="evenodd"
     clip-rule="evenodd"
     d="M 11.730774,0.1733 C 5.136974,0.3144 -0.10422603,5.7556 0.00157397,12.35 l 0.13,8.1024 -0.13,8.1024 c -0.1058,6.5945 5.13540003,12.0357 11.72920003,12.1767 l 8.1036,0.1734 8.1036,-0.1734 c 6.5938,-0.141 11.8351,-5.5822 11.7293,-12.1767 l -0.13,-8.1024 0.13,-8.1024 c 0.1058,-6.5944 -5.1355,-12.0356 -11.7293,-12.1767 L 19.834374,0 Z m 8.3836,30.5965 -3.0628,2.6526 -2.7893,-3.0081 c -0.2188,0.0365 -0.4376,0.0639 -0.6563,0.0821 -0.2006,0.0364 -0.4285,0.0547 -0.6837,0.0547 h -0.4922 c -1.2944,0 -2.3883,-0.1732 -3.2816,-0.5196 -0.8933,-0.3464 -1.6134,-0.9207 -2.1603,-1.7228 -0.5469,-0.8204 -0.9389,-1.8687 -1.1759,-3.1448 -0.237,-1.2944 -0.3555,-2.8532 -0.3555,-4.6762 0,-1.8231 0.1185,-3.3727 0.3555,-4.6489 0.237,-1.2944 0.629,-2.3426 1.1759,-3.1448 0.5469,-0.8204 1.267,-1.4129 2.1603,-1.7775 0.8933,-0.3829 1.9872,-0.5743 3.2816,-0.5743 1.2944,0 2.3882,0.1914 3.2815,0.5743 0.8933,0.3646 1.6135,0.9571 2.1604,1.7775 0.5469,0.8022 0.9389,1.8504 1.1759,3.1448 0.237,1.2762 0.3555,2.8258 0.3555,4.6489 0,1.8777 -0.1276,3.4638 -0.3829,4.7582 -0.2552,1.2944 -0.6745,2.3518 -1.2579,3.1722 z m 8.6322,-13.0168 v -1.0938 c 0,-1.1121 -0.1094,-1.8687 -0.3282,-2.2697 -0.2187,-0.4011 -0.5742,-0.6017 -1.0665,-0.6017 -0.3828,0 -0.6927,0.1003 -0.9297,0.3009 -0.2188,0.2005 -0.392,0.556 -0.5196,1.0665 -0.1094,0.5104 -0.1823,1.2032 -0.2188,2.0783 -0.0365,0.8568 -0.0547,1.9416 -0.0547,3.2542 0,1.3126 0.0182,2.4064 0.0547,3.2815 0.0365,0.8569 0.1094,1.5405 0.2188,2.051 0.1276,0.5104 0.3008,0.8659 0.5196,1.0665 0.237,0.2005 0.5469,0.3008 0.9297,0.3008 0.3099,0 0.5652,-0.0729 0.7657,-0.2188 0.2006,-0.1641 0.3555,-0.4284 0.4649,-0.793 0.1094,-0.3646 0.1823,-0.8478 0.2188,-1.4494 0.0547,-0.6198 0.082,-1.3946 0.082,-2.3244 h 4.9223 v 1.4494 c 0,1.3673 -0.1823,2.4885 -0.5469,3.3635 -0.3646,0.8751 -0.8477,1.5679 -1.4493,2.0783 -0.6017,0.4923 -1.2944,0.8204 -2.0784,0.9845 -0.7656,0.1823 -1.5587,0.2735 -2.3791,0.2735 -1.422,0 -2.5887,-0.1732 -3.5003,-0.5196 -0.9115,-0.3464 -1.6225,-0.9207 -2.133,-1.7228 -0.5105,-0.8204 -0.866,-1.8687 -1.0665,-3.1448 -0.1823,-1.2944 -0.2735,-2.8532 -0.2735,-4.6762 0,-1.8596 0.1094,-3.4365 0.3282,-4.7309 0.237,-1.2944 0.629,-2.3427 1.1759,-3.1448 0.5469,-0.8022 1.267,-1.3765 2.1603,-1.7229 0.8933,-0.3646 1.9963,-0.5469 3.3089,-0.5469 1.1486,0 2.1239,0.1459 2.9261,0.4376 0.8021,0.2917 1.4493,0.711 1.9416,1.2579 0.5104,0.5287 0.875,1.1759 1.0938,1.9416 0.237,0.7474 0.3555,1.5952 0.3555,2.5432 v 1.2305 z"
     fill="#394149"
     id="path2506" />
  <path
     fill-rule="evenodd"
     clip-rule="evenodd"
     d="m 63.565174,13.9364 4.4582,4.6265 4.4582,-4.6265 h 7.7457 l -8.3369,7.9312 8.3369,7.9311 h -7.7457 l -4.4582,-4.6383 -4.4582,4.6383 h -7.7575 l 8.337,-7.9311 -8.337,-7.9312 z m -0.4298,7.9312 -9.0675,-8.6261 h 9.7937 l 4.1618,4.3189 4.1618,-4.3189 h 9.4441 v -0.0118 h 16.006 c 3.659996,-0.0374 6.757996,3.0232 6.707996,6.6955 -0.001,1.3209 -0.358,2.5385 -1.073,3.6222 -0.538,0.8203 -1.22,1.4952 -2.037,2.0084 l 3.413,4.3821 V 27.096 c 0,-2.2266 1.664,-3.6461 3.578,-4.5875 1.933,-0.9504 4.372,-1.5442 6.403,-2.0246 0.001,-2e-4 0.002,-5e-4 0.003,-7e-4 l 0.023,-0.0058 c 1.252,-0.3079 2.318,-0.57 3.077,-0.8527 0.384,-0.1433 0.636,-0.273 0.78,-0.3832 0.018,-0.014 0.033,-0.0264 0.046,-0.0371 -0.044,-0.0404 -0.134,-0.1007 -0.311,-0.1702 -0.413,-0.1617 -1.118,-0.2835 -2.186,-0.2838 -1.141,0.0118 -2.111,0.1046 -2.773,0.3368 -0.326,0.1145 -0.523,0.2449 -0.634,0.3673 -0.094,0.1051 -0.15,0.2298 -0.145,0.4254 l 0.017,0.7116 h -7.63 v -0.6949 c 0,-1.4266 0.28,-2.6194 0.84,-3.5967 0.563,-0.9817 1.383,-1.6985 2.383,-2.2126 1.962,-1.0087 4.665,-1.2589 7.679,-1.2589 3.086,0 5.648,0.3561 7.462,1.2729 0.918,0.4646 1.664,1.0829 2.177,1.887 0.514,0.8062 0.766,1.7552 0.766,2.8343 0,1.9969 -1.205,3.2688 -2.682,4.0978 -1.434,0.8049 -3.239,1.262 -4.738,1.6277 h 7.16 v 5.922 h -20.881 l 0.009,0.0118 h -8.363996 l -2.992,-3.8712 h -4.495 v 3.8712 h -7.264 l 0.013,0.0118 h -9.7826 l -4.1613,-4.3294 -4.1613,4.3294 h -9.7942 z m 18.4939,8.3043 V 13.5632 l -8.7297,8.3044 z m 12.427,-4.2561 2.992,3.8711 h 6.597996 l -3.465,-4.4495 c 0.217,-0.1005 0.424,-0.2117 0.623,-0.3333 0.758,-0.4642 1.388,-1.0809 1.884,-1.8383 0.639,-0.9678 0.958,-2.0536 0.958,-3.2456 0.048,-3.2811 -2.731,-6.031 -6.006996,-5.9956 h -15.314 v 15.8623 h 6.196 V 25.9158 Z M 115.13427,25.243 c 0.217,-0.2653 0.61,-0.4909 1.132,-0.6949 0.615,-0.2408 1.407,-0.4516 2.297,-0.6623 3.051,-0.7436 6.942,-1.7586 6.942,-5.0632 0,-3.8712 -3.595,-5.2993 -9.709,-5.2993 -5.749,0 -9.826,0.9366 -10.18,5.6783 -0.017,0.2232 -0.026,0.4547 -0.026,0.695 h 6.221 c -10e-4,-0.0262 -10e-4,-0.052 0,-0.0774 0.034,-1.4099 1.98,-1.7406 4.245,-1.7638 2.211,0 3.228,0.4957 3.228,1.1685 0,0.8304 -1.962,1.3131 -4.426,1.919 l -0.067,0.0165 c -4.092,0.9678 -9.449,2.3133 -9.449,5.9366 v 2.6791 h 19.902 V 25.243 Z m 3.461,-5.9853 c -0.001,2e-4 -0.004,-0.0044 -0.006,-0.0146 0.006,0.0092 0.007,0.0143 0.006,0.0146 z m -21.852996,0.6625 c 0,-0.3715 -0.292,-0.6623 -0.664,-0.6623 h -6.86 v 1.3128 h 6.86 c 0.2,0 0.34,-0.0607 0.465,-0.1859 0.143,-0.1426 0.199,-0.2852 0.199,-0.4646 z m 0.696,0 c 0,-0.7554 -0.603,-1.3573 -1.36,-1.3573 h -7.557 v 2.7027 h 7.557 c 0.378,0 0.698,-0.1298 0.958,-0.3894 0.272,-0.2715 0.402,-0.5901 0.402,-0.956 z"
     fill="#394149"
     id="path2508" />
  <path
     d="m 56.381174,41.2423 h 2.9679 v -4.0637 l 2.9734,4.0637 h 1.4839 l 2.9735,-4.0637 v 4.0637 h 2.9679 v -7.6174 h -3.7098 l -2.9735,3.8087 -2.9678,-3.8087 h -3.7155 z"
     fill="#394149"
     id="path2510" />
  <path
     d="m 76.000274,33.4379 c -2.8656,0.0057 -5.2104,0.8331 -5.1991,3.718 v 0.5554 c -0.0113,2.8792 2.3335,3.7124 5.1991,3.718 2.86,-0.0056 5.205,-0.8388 5.194,-3.718 v -0.5554 c 0,-2.8792 -2.328,-3.718 -5.194,-3.718 z m 2.226,4.0864 c 0.017,1.2469 -1.014,1.4736 -2.226,1.4906 -1.2174,-0.017 -2.2483,-0.2437 -2.2313,-1.4906 v -0.187 c -0.017,-1.2413 1.0139,-1.468 2.2313,-1.485 1.212,0.017 2.243,0.2437 2.226,1.485 z"
     fill="#394149"
     id="path2512" />
  <path
     d="m 89.508274,37.445 c 0,0.7651 -0.436,1.3942 -1.206,1.3942 h -3.251 v -2.7885 h 3.251 c 0.77,0 1.206,0.6234 1.206,1.3943 z m -7.425,-3.8087 v 7.6173 h 6.774 c 2.09,0.0284 3.642,-1.7399 3.625,-3.8086 0.017,-2.0801 -1.535,-3.8371 -3.625,-3.8087 z"
     fill="#394149"
     id="path2514" />
  <path
     d="m 100.74527,37.53 c 0.017,1.2525 -1.012996,1.4679 -2.225996,1.4849 -1.217,-0.017 -2.242,-0.2324 -2.231,-1.4849 v -3.9051 h -2.968 v 4.0921 c -0.011,2.8792 2.345,3.7067 5.199,3.7123 2.854996,-0.0056 5.210996,-0.8331 5.199996,-3.7123 v -4.0921 h -2.974 z"
     fill="#394149"
     id="path2516" />
  <path
     d="m 105.05527,33.6249 v 7.6174 h 8.91 v -2.4144 h -5.942 v -5.203 z"
     fill="#394149"
     id="path2518" />
  <path
     d="m 114.97827,41.2536 h 8.91 v -1.9553 h -5.942 v -0.9749 h 5.942 v -1.7626 h -5.942 v -0.9749 h 5.942 v -1.9496 h -8.91 z"
     fill="#394149"
     id="path2520" />
  <path
     d="M 58.089974,4.6056 V 3.0003 h 4.3989 c 0.2131,0 0.3986,0.0771 0.5498,0.2383 0.1581,0.1543 0.2337,0.3435 0.2337,0.5678 0,0.2174 -0.0756,0.4066 -0.2337,0.5679 -0.1512,0.1542 -0.3367,0.2313 -0.5498,0.2313 z m -3.6015,-4.3602 v 9.4214 h 3.6015 V 7.3675 h 5.2993 c 1.9039,0.0281 3.5191,-1.6193 3.4916,-3.5611 0.0275,-1.9487 -1.5877,-3.5821 -3.4916,-3.561 z"
     fill="#394149"
     id="path2522" />
  <path
     d="m 74.049574,0 c -3.4778,0.007 -6.3233,1.0305 -6.3096,4.5986 v 0.687 c -0.0137,3.5611 2.8318,4.5915 6.3096,4.5985 3.4707,-0.007 6.3167,-1.0374 6.3027,-4.5985 v -0.687 c 0,-3.5611 -2.825,-4.5986 -6.3027,-4.5986 z m 2.7007,5.0542 c 0.021,1.5422 -1.23,1.8226 -2.7007,1.8437 -1.4777,-0.0211 -2.7286,-0.3015 -2.708,-1.8437 V 4.8229 c -0.0206,-1.5352 1.2303,-1.8156 2.708,-1.8366 1.4707,0.021 2.7217,0.3014 2.7007,1.8366 z"
     fill="#394149"
     id="path2524" />
  <path
     d="m 94.394274,6.2109 -2.138,-5.9655 h -4.055 l -2.144,5.9655 -2.138,-5.9655 h -4.055 l 4.055,9.4214 h 4.282 l 2.028,-4.7107 2.027,4.7107 h 4.282 l 4.055996,-9.4214 h -4.055996 z"
     fill="#394149"
     id="path2526" />
  <path
     d="m 100.86927,9.6668 h 10.811 V 7.2484 h -7.21 V 6.0426 h 7.21 V 3.8625 h -7.21 V 2.6568 h 7.21 V 0.2454 h -10.811 z"
     fill="#394149"
     id="path2528" />
  <path
     d="m 113.59827,0.2383 v 9.4215 h 3.601 V 7.3605 h 3.217 l 1.739,2.2993 h 3.835 l -2.014,-2.6428 c 0.605,-0.2874 1.093,-0.722 1.457,-1.2898 0.372,-0.5748 0.557,-1.2197 0.557,-1.9278 0.028,-1.9488 -1.588,-3.5821 -3.491,-3.5611 z m 7.993,2.755 c 0.44,0 0.791,0.3575 0.791,0.8061 0,0.2173 -0.076,0.4066 -0.234,0.5678 -0.151,0.1543 -0.337,0.2314 -0.557,0.2314 h -4.392 V 2.9933 Z"
     fill="#394149"
     id="path2530" />
</svg>
