<svg
   xmlns="http://www.w3.org/2000/svg"
   viewBox="0 0 152.4921 41.270199"
   fill="none"
   id="svg2918">
  <path
     d="M 12.5812,39.4482 8.4059,32.2163 14.5334,21.6322 18.4272,28.377 41.413,28.3646 34.8907,39.548 Z"
     fill="#ffad64"
     id="path2876" />
  <path
     d="M 45.5174,21.1835 41.3421,28.4153 29.1123,28.4009 33.0065,21.6563 21.5029,1.7562 34.4492,1.813 Z"
     fill="#add4d3"
     id="path2878" />
  <path
     d="m 13.2248,1.7177 h 8.3506 l 6.1024,10.5987 -7.7882,-3e-4 L 8.4075,32.2286 1.9835,20.9884 Z"
     fill="#fb8351"
     id="path2880" />
  <path
     fill-rule="evenodd"
     clip-rule="evenodd"
     d="M 22.5933,0.0432 22.5684,0 H 12.2381 L 0,20.9796 l 8.4008,14.699 0.0103,-0.0178 3.1758,5.5007 24.2879,0.1087 8.5294,-14.6249 H 44.3474 L 47.4983,21.1879 35.4485,0.0996 Z m 7.9912,13.9909 h 0.0644 l -6.0725,-10.5467 8.8734,0.0389 10.0867,17.6527 -3.1572,5.4685 -8.2738,0.0044 2.8848,-4.9962 z M 20.4896,3.4354 l 4.1407,7.1631 -5.733,-2e-4 L 9.0823,27.6195 8.4128,28.776 3.967,20.9971 14.2113,3.4354 Z m -3.981,18.1826 4.3733,-7.5842 5.7344,2e-4 4.4064,7.6227 -2.8854,4.9974 -8.7186,0.0047 z m -6.1153,10.6052 1.6638,-2.8853 2.4742,-4.2737 2.9045,5.0311 8.7173,-0.0047 -0.0141,0.0244 12.2562,0.0145 -4.4886,7.6964 -20.3311,-0.091 z"
     fill="#333237"
     id="path2882" />
  <path
     d="m 57.503,35.294 v -8.0417 h -2.9722 v -0.9028 h 7.0834 v 0.9028 h -2.9723 v 8.0417 z"
     fill="#333237"
     id="path2884" />
  <path
     d="m 64.7787,35.4329 c -1.176,0 -2.0556,-0.2824 -2.6389,-0.8472 -0.5834,-0.5648 -0.875,-1.4352 -0.875,-2.6112 0,-1.0555 0.25,-1.8842 0.75,-2.4861 0.5092,-0.6111 1.3102,-0.9167 2.4028,-0.9167 0.6481,0 1.1805,0.1204 1.5972,0.3612 0.4259,0.2314 0.7408,0.5555 0.9445,0.9722 0.2129,0.4074 0.3194,0.8704 0.3194,1.3889 v 1.2361 h -4.875 c 0.037,0.5 0.1435,0.8935 0.3194,1.1806 0.1852,0.287 0.4583,0.4953 0.8195,0.625 0.3703,0.1203 0.8565,0.1805 1.4583,0.1805 0.6759,0 1.2963,-0.1157 1.8611,-0.3472 v 0.8889 c -0.287,0.1204 -0.6111,0.213 -0.9722,0.2778 -0.3519,0.0648 -0.7222,0.0972 -1.1111,0.0972 z m -2.375,-3.7222 h 3.8611 V 31.169 c 0,-0.5371 -0.1435,-0.9491 -0.4306,-1.2361 -0.2777,-0.2963 -0.7407,-0.4445 -1.3889,-0.4445 -0.787,0 -1.324,0.1852 -1.6111,0.5556 -0.287,0.3703 -0.4305,0.9259 -0.4305,1.6667 z"
     fill="#333237"
     id="path2886" />
  <path
     d="m 72.0593,35.4329 c -1.1481,0 -2,-0.2963 -2.5555,-0.8889 -0.5556,-0.6018 -0.8334,-1.4491 -0.8334,-2.5417 0,-1.1574 0.3148,-2.0185 0.9445,-2.5833 0.6296,-0.5648 1.4768,-0.8473 2.5417,-0.8473 0.4352,0 0.7963,0.0324 1.0833,0.0973 0.287,0.0555 0.5648,0.1481 0.8333,0.2777 v 0.9028 c -0.5,-0.2407 -1.0694,-0.3611 -1.7083,-0.3611 -0.8148,0 -1.4445,0.1945 -1.8889,0.5834 -0.4445,0.3796 -0.6667,1.0231 -0.6667,1.9305 0,0.8704 0.1945,1.5093 0.5834,1.9167 0.3889,0.3982 1.0324,0.5972 1.9305,0.5972 0.6389,0 1.2269,-0.1203 1.7639,-0.3611 v 0.9167 c -0.287,0.1204 -0.5972,0.2083 -0.9305,0.2639 -0.3241,0.0648 -0.6898,0.0972 -1.0973,0.0972 z"
     fill="#333237"
     id="path2888" />
  <path
     d="m 75.3637,35.294 v -9.3612 h 1.1389 v 3.4862 c 0.3056,-0.25 0.6621,-0.4537 1.0695,-0.6111 0.4167,-0.1575 0.8981,-0.2362 1.4444,-0.2362 0.7963,0 1.3936,0.1945 1.7917,0.5834 0.3982,0.3889 0.5972,1 0.5972,1.8333 v 4.3056 h -1.1388 v -4.2639 c 0,-0.5741 -0.1297,-0.9722 -0.3889,-1.1945 -0.25,-0.2314 -0.6667,-0.3472 -1.2501,-0.3472 -0.3703,0 -0.7546,0.0833 -1.1527,0.25 -0.3889,0.1574 -0.713,0.3658 -0.9723,0.625 v 4.9306 z"
     fill="#333237"
     id="path2890" />
  <path
     d="m 85.9478,35.433 c -0.9259,0 -1.6667,-0.2037 -2.2222,-0.6112 -0.5556,-0.4074 -0.8334,-0.9537 -0.8334,-1.6389 0,-0.6296 0.1945,-1.1713 0.5834,-1.625 0.3888,-0.4537 0.9213,-0.8565 1.5972,-1.2083 -0.3611,-0.3611 -0.6667,-0.6991 -0.9167,-1.0139 -0.25,-0.3148 -0.375,-0.6945 -0.375,-1.1389 0,-0.5556 0.1898,-1.0232 0.5695,-1.4028 0.3889,-0.3889 0.9352,-0.5833 1.6389,-0.5833 0.6852,0 1.2176,0.1805 1.5972,0.5416 0.3794,0.3611 0.5694,0.8426 0.5694,1.4445 0,0.5 -0.134,0.9213 -0.403,1.2639 -0.2683,0.3426 -0.6525,0.6898 -1.1525,1.0417 l 2.3055,2.3472 c 0.157,-0.3426 0.236,-0.7778 0.236,-1.3056 v -0.1944 h 0.903 v 0.1944 c 0,0.3612 -0.042,0.713 -0.125,1.0556 -0.083,0.3426 -0.204,0.6389 -0.361,0.8889 l 1.25,1.2639 -0.695,0.625 -1.111,-1.0972 c -0.324,0.3981 -0.745,0.6898 -1.2636,0.875 -0.5185,0.1852 -1.1158,0.2778 -1.7917,0.2778 z m -0.0556,-5.4862 c 0.4352,-0.2685 0.7639,-0.5231 0.9862,-0.7639 0.2222,-0.25 0.3333,-0.5648 0.3333,-0.9444 0,-0.3519 -0.0972,-0.6297 -0.2917,-0.8334 -0.1852,-0.2129 -0.4953,-0.3194 -0.9305,-0.3194 -0.4445,0 -0.7686,0.1111 -0.9723,0.3333 -0.1944,0.2222 -0.2916,0.4954 -0.2916,0.8195 0,0.2963 0.1018,0.5694 0.3055,0.8194 0.213,0.25 0.5,0.5463 0.8611,0.8889 z m 0.0556,4.6667 c 0.537,0 0.9954,-0.0787 1.375,-0.2361 0.3889,-0.1667 0.7173,-0.412 0.9863,-0.7361 L 85.7672,31.044 c -0.6018,0.2778 -1.0509,0.5787 -1.3472,0.9028 -0.287,0.3148 -0.4306,0.7176 -0.4306,1.2084 0,0.4814 0.1852,0.8472 0.5556,1.0972 0.3704,0.2407 0.838,0.3611 1.4028,0.3611 z"
     fill="#fb8351"
     id="path2892" />
  <path
     d="M 54.9795,19.857 V 7.4723 h 3.6154 v 9.6154 h 5.577 v 2.7693 z"
     fill="#fb8351"
     id="path2894" />
  <path
     d="m 69.988,20.0493 c -1.8205,0 -3.1667,-0.4039 -4.0385,-1.2116 -0.8589,-0.8077 -1.2884,-1.9872 -1.2884,-3.5385 0,-1.5384 0.4359,-2.7115 1.3077,-3.5192 0.8718,-0.8205 2.2115,-1.2308 4.0192,-1.2308 1.8206,0 3.1667,0.4103 4.0385,1.2308 0.8847,0.8077 1.327,1.9808 1.327,3.5192 0,1.5513 -0.4359,2.7308 -1.3077,3.5385 -0.8718,0.8077 -2.2244,1.2116 -4.0578,1.2116 z m 0,-2.6347 c 0.5898,0 1.0129,-0.1666 1.2693,-0.5 0.2692,-0.3333 0.4038,-0.8718 0.4038,-1.6154 0,-0.7307 -0.1346,-1.2628 -0.4038,-1.5961 -0.2564,-0.3462 -0.6795,-0.5193 -1.2693,-0.5193 -0.5769,0 -0.9936,0.1731 -1.25,0.5193 -0.2564,0.3333 -0.3846,0.8654 -0.3846,1.5961 0,0.7436 0.1282,1.2821 0.3846,1.6154 0.2564,0.3334 0.6731,0.5 1.25,0.5 z"
     fill="#fb8351"
     id="path2896" />
  <path
     d="m 80.7082,23.2416 c -0.4487,0 -0.9359,-0.0192 -1.4615,-0.0577 -0.5257,-0.0256 -1.0257,-0.0769 -1.5,-0.1538 -0.4616,-0.0769 -0.8462,-0.1667 -1.1539,-0.2693 v -2.3077 c 0.3462,0.1154 0.7436,0.2116 1.1923,0.2885 0.4616,0.0769 0.9295,0.1346 1.4039,0.1731 0.4743,0.0384 0.9102,0.0577 1.3077,0.0577 0.6795,0 1.2115,-0.0385 1.5962,-0.1154 0.3974,-0.0641 0.5961,-0.1859 0.5961,-0.3654 0,-0.1538 -0.0641,-0.2564 -0.1923,-0.3077 -0.1282,-0.0385 -0.3718,-0.0577 -0.7308,-0.0577 h -2.4038 c -0.9359,0 -1.6603,-0.1474 -2.1731,-0.4423 -0.5,-0.3077 -0.75,-0.7628 -0.75,-1.3654 0,-0.8462 0.4679,-1.4359 1.4038,-1.7692 -0.5256,-0.2693 -0.9102,-0.609 -1.1538,-1.0193 -0.2436,-0.4102 -0.3654,-0.9295 -0.3654,-1.5577 0,-1.1795 0.3974,-2.0449 1.1923,-2.5962 0.8077,-0.5512 1.968,-0.8269 3.4808,-0.8269 0.3205,0 0.6795,0.0256 1.0769,0.0769 0.3975,0.0385 0.6859,0.077 0.8654,0.1154 h 3.577 l -0.077,2.1923 h -1.2115 c 0.2308,0.2949 0.3462,0.6539 0.3462,1.077 0,0.9359 -0.2757,1.6795 -0.827,2.2308 -0.5384,0.5384 -1.391,0.8077 -2.5577,0.8077 -0.1667,0 -0.3461,-0.0064 -0.5385,-0.0193 -0.1923,-0.0256 -0.3718,-0.0448 -0.5384,-0.0577 -0.2821,0.0257 -0.5257,0.077 -0.7308,0.1539 -0.2051,0.0769 -0.3077,0.2051 -0.3077,0.3846 0,0.1282 0.0577,0.218 0.1731,0.2692 0.1154,0.0385 0.2756,0.0577 0.4808,0.0577 h 2.0961 c 0.9359,0 1.6731,0.218 2.2116,0.6539 0.5385,0.4359 0.8077,1.0769 0.8077,1.9231 0,0.8974 -0.4167,1.5897 -1.25,2.0769 -0.8334,0.5 -2.1282,0.75 -3.8847,0.75 z m 0.3077,-8.1731 c 0.5641,0 0.9552,-0.0962 1.1731,-0.2885 0.218,-0.1923 0.3269,-0.5128 0.3269,-0.9615 0,-0.4488 -0.1089,-0.7757 -0.3269,-0.9808 C 81.9711,12.6326 81.58,12.53 81.0159,12.53 c -0.5256,0 -0.9102,0.1026 -1.1538,0.3077 -0.2308,0.1923 -0.3462,0.5192 -0.3462,0.9808 0,0.4359 0.109,0.7564 0.3269,0.9615 0.2308,0.1923 0.6218,0.2885 1.1731,0.2885 z"
     fill="#fb8351"
     id="path2898" />
  <path
     d="m 92.4121,20.0493 c -1.821,0 -3.167,-0.4039 -4.039,-1.2116 -0.859,-0.8077 -1.2885,-1.9872 -1.2885,-3.5385 0,-1.5384 0.4359,-2.7115 1.3075,-3.5192 0.872,-0.8205 2.212,-1.2308 4.02,-1.2308 1.82,0 3.166,0.4103 4.038,1.2308 0.885,0.8077 1.327,1.9808 1.327,3.5192 0,1.5513 -0.436,2.7308 -1.308,3.5385 -0.872,0.8077 -2.224,1.2116 -4.057,1.2116 z m 0,-2.6347 c 0.589,0 1.012,-0.1666 1.269,-0.5 0.269,-0.3333 0.404,-0.8718 0.404,-1.6154 0,-0.7307 -0.135,-1.2628 -0.404,-1.5961 -0.257,-0.3462 -0.68,-0.5193 -1.269,-0.5193 -0.577,0 -0.994,0.1731 -1.251,0.5193 -0.256,0.3333 -0.384,0.8654 -0.384,1.5961 0,0.7436 0.128,1.2821 0.384,1.6154 0.257,0.3334 0.674,0.5 1.251,0.5 z"
     fill="#fb8351"
     id="path2900" />
  <path
     d="M 99.3661,9.5299 V 6.9145 h 3.904 v 2.6154 z m 0.288,10.327 v -6.4808 h -1.326 l 0.307,-2.6346 h 4.635 v 9.1154 z"
     fill="#333237"
     id="path2902" />
  <path
     d="M 105.0041,24.0108 V 10.7415 h 3.135 l 0.173,0.7307 c 0.371,-0.2948 0.775,-0.5192 1.211,-0.673 0.449,-0.1667 0.968,-0.25 1.558,-0.25 1.359,0 2.404,0.3461 3.135,1.0384 0.743,0.6795 1.115,1.8398 1.115,3.4808 0,1.6283 -0.391,2.8654 -1.173,3.7116 -0.782,0.8462 -1.859,1.2692 -3.231,1.2692 -0.91,0 -1.679,-0.173 -2.308,-0.5192 v 4.4808 z m 5,-6.5962 c 0.526,0 0.93,-0.1859 1.212,-0.5577 0.282,-0.3718 0.423,-0.9487 0.423,-1.7308 0,-0.7564 -0.135,-1.2692 -0.404,-1.5384 -0.257,-0.2693 -0.654,-0.4039 -1.193,-0.4039 -0.538,0 -1.012,0.1795 -1.423,0.5385 v 3.2308 c 0.206,0.1538 0.411,0.2692 0.616,0.3461 0.205,0.0769 0.461,0.1154 0.769,0.1154 z"
     fill="#333237"
     id="path2904" />
  <path
     d="m 120.1491,20.0492 c -0.782,0 -1.519,-0.0576 -2.211,-0.173 -0.68,-0.1026 -1.218,-0.2372 -1.616,-0.4039 v -2.5962 c 0.449,0.2052 0.981,0.3654 1.596,0.4808 0.629,0.1154 1.161,0.1731 1.596,0.1731 0.462,0 0.808,-0.0128 1.039,-0.0385 0.244,-0.0256 0.365,-0.1346 0.365,-0.3269 0,-0.2179 -0.211,-0.3846 -0.634,-0.5 -0.423,-0.1154 -0.955,-0.2821 -1.596,-0.5 -0.834,-0.2949 -1.456,-0.641 -1.866,-1.0385 -0.41,-0.3974 -0.615,-0.9743 -0.615,-1.7308 0,-0.9102 0.359,-1.6089 1.077,-2.0961 0.718,-0.5 1.846,-0.75 3.384,-0.75 0.59,0 1.199,0.0448 1.827,0.1346 0.628,0.0897 1.122,0.1923 1.481,0.3077 V 13.53 c -0.385,-0.1667 -0.808,-0.2885 -1.269,-0.3654 -0.449,-0.077 -0.859,-0.1154 -1.231,-0.1154 -0.41,0 -0.776,0.0192 -1.096,0.0577 -0.321,0.0384 -0.481,0.1474 -0.481,0.3269 0,0.2051 0.18,0.3526 0.539,0.4423 0.371,0.0898 0.865,0.2308 1.48,0.4231 0.693,0.2051 1.231,0.4295 1.616,0.6731 0.397,0.2436 0.673,0.5384 0.827,0.8846 0.166,0.3462 0.25,0.7756 0.25,1.2885 0,0.9231 -0.379,1.641 -1.135,2.1538 -0.744,0.5 -1.853,0.75 -3.327,0.75 z"
     fill="#333237"
     id="path2906" />
  <path
     d="m 129.2701,20.0492 c -1.064,0 -1.897,-0.3012 -2.5,-0.9038 -0.602,-0.6026 -0.903,-1.4872 -0.903,-2.6539 v -5.75 h 3.615 v 5.4616 c 0,0.7948 0.404,1.1923 1.211,1.1923 0.295,0 0.584,-0.0641 0.866,-0.1923 0.282,-0.1282 0.506,-0.2885 0.673,-0.4808 v -5.9808 h 3.615 v 9.1154 h -3.384 l -0.096,-0.6923 c -0.359,0.2564 -0.802,0.468 -1.327,0.6346 -0.513,0.1667 -1.103,0.25 -1.77,0.25 z"
     fill="#333237"
     id="path2908" />
  <path
     d="m 137.5691,19.8569 v -9.1154 h 3.346 l 0.096,0.7307 c 0.398,-0.2692 0.84,-0.4871 1.327,-0.6538 0.5,-0.1795 1.045,-0.2692 1.635,-0.2692 0.589,0 1.051,0.0833 1.384,0.25 0.334,0.1666 0.603,0.4102 0.808,0.7307 0.41,-0.2948 0.872,-0.532 1.385,-0.7115 0.525,-0.1795 1.141,-0.2692 1.846,-0.2692 1.064,0 1.846,0.282 2.346,0.8461 0.5,0.5513 0.75,1.3975 0.75,2.5385 v 5.9231 h -3.558 v -5.5 c 0,-0.4103 -0.083,-0.6987 -0.25,-0.8654 -0.166,-0.1795 -0.442,-0.2692 -0.827,-0.2692 -0.5,0 -0.91,0.1795 -1.23,0.5384 0.025,0.1667 0.038,0.327 0.038,0.4808 0,0.141 0,0.3013 0,0.4808 v 5.1346 h -3.346 v -5.5577 c 0,-0.3718 -0.064,-0.641 -0.192,-0.8077 -0.129,-0.1795 -0.372,-0.2692 -0.731,-0.2692 -0.244,0 -0.481,0.0641 -0.712,0.1923 -0.231,0.1282 -0.436,0.282 -0.615,0.4615 v 5.9808 z"
     fill="#333237"
     id="path2910" />
  <path
     d="m 96.6971,35.5476 c -0.963,0 -1.764,-0.1806 -2.403,-0.5417 -0.629,-0.3704 -1.101,-0.8843 -1.416,-1.5417 -0.315,-0.6666 -0.472,-1.4444 -0.472,-2.3333 0,-0.9722 0.148,-1.8195 0.444,-2.5417 0.296,-0.7222 0.759,-1.2778 1.389,-1.6667 0.63,-0.3981 1.444,-0.5972 2.444,-0.5972 0.519,0 0.986,0.037 1.403,0.1111 0.426,0.0741 0.824,0.1759 1.195,0.3056 v 1 c -0.371,-0.1389 -0.764,-0.2454 -1.181,-0.3195 -0.417,-0.0833 -0.856,-0.125 -1.319,-0.125 -0.806,0 -1.445,0.1528 -1.917,0.4584 -0.472,0.3055 -0.81,0.7453 -1.014,1.3194 -0.204,0.5741 -0.306,1.2593 -0.306,2.0556 0,1.1018 0.26,1.9537 0.778,2.5556 0.528,0.5926 1.357,0.8889 2.486,0.8889 0.417,0 0.838,-0.0325 1.264,-0.0973 0.435,-0.0648 0.838,-0.1666 1.209,-0.3055 v 1.0139 c -0.362,0.1111 -0.755,0.199 -1.181,0.2639 -0.417,0.0648 -0.884,0.0972 -1.403,0.0972 z"
     fill="#333237"
     id="path2912" />
  <path
     d="m 103.9571,35.5476 c -1.148,0 -1.986,-0.2917 -2.514,-0.875 -0.518,-0.5926 -0.777,-1.4445 -0.777,-2.5556 0,-1.1019 0.264,-1.9491 0.791,-2.5417 0.528,-0.5926 1.362,-0.8889 2.5,-0.8889 1.139,0 1.973,0.2963 2.5,0.8889 0.528,0.5926 0.792,1.4398 0.792,2.5417 0,1.1111 -0.259,1.963 -0.778,2.5556 -0.518,0.5833 -1.356,0.875 -2.514,0.875 z m 0,-0.9722 c 0.787,0 1.343,-0.1945 1.667,-0.5834 0.324,-0.3981 0.486,-1.0231 0.486,-1.875 0,-0.8519 -0.166,-1.4722 -0.5,-1.8611 -0.324,-0.3982 -0.875,-0.5973 -1.653,-0.5973 -0.777,0 -1.333,0.1991 -1.666,0.5973 -0.324,0.3889 -0.486,1.0092 -0.486,1.8611 0,0.8519 0.162,1.4769 0.486,1.875 0.324,0.3889 0.879,0.5834 1.666,0.5834 z"
     fill="#333237"
     id="path2914" />
  <path
     d="m 108.6411,35.4087 v -0.9583 h 1.028 v 0.9583 z"
     fill="#333237"
     id="path2916" />
</svg>
