<svg
   xmlns="http://www.w3.org/2000/svg"
   id="logoipsum"
   data-name="logoipsum"
   viewBox="0 0 126.71866 29.54048">
  <title
     id="title75">logoipsum-4</title>
  <path
     d="M 35.99,9.0304791 H 39.2 V 22.030479 h -3.21 z m 4.49,8.1099999 c 0,-3.22 2,-5.15 5,-5.15 3,0 5,1.93 5,5.15 0,3.22 -1.93,5.17 -5,5.17 -3.07,0 -5,-1.88 -5,-5.17 z m 6.82,0 c 0,-1.77 -0.69,-2.81 -1.79,-2.81 -1.1,0 -1.78,1 -1.78,2.81 0,1.81 0.68,2.8 1.78,2.8 1.1,0 1.81,-0.99 1.81,-2.79 z m 4.46,5.56 h 3.1 a 1.66,1.66 0 0 0 1.74,1 c 1.23,0 1.87,-0.66 1.87,-1.64 v -1.8 h 0.01 a 3.07,3.07 0 0 1 -3,1.75 c -2.35,0 -3.91,-1.79 -3.91,-4.87 0,-3.08 1.49,-5 4,-5 a 3.07,3.07 0 0 1 3,1.89 h -0.09 v -1.81 h 3.18 v 9.74 c 0,2.35 -2.08,3.82 -5.14,3.82 -2.78,-0.01 -4.56,-1.28 -4.74,-3.07 z m 6.72,-5.56 c 0,-1.57 -0.72,-2.56 -1.86,-2.56 -1.14,0 -1.84,1 -1.84,2.56 0,1.56 0.69,2.48 1.84,2.48 1.15,0 1.86,-0.85 1.86,-2.48 z m 4.45,0 c 0,-3.22 2,-5.15 5,-5.15 3,0 5,1.93 5,5.15 0,3.22 -1.94,5.17 -5,5.17 -3.06,0 -4.98,-1.88 -4.98,-5.17 z m 6.82,0 c 0,-1.77 -0.7,-2.81 -1.79,-2.81 -1.09,0 -1.78,1 -1.78,2.81 0,1.81 0.68,2.8 1.78,2.8 1.1,0 1.81,-0.99 1.81,-2.79 z m 4.48,-7.2899999 a 1.64,1.64 0 1 1 1.64,1.5699999 1.58,1.58 0 0 1 -1.62,-1.5599999 z m 0,2.3599999 h 3.25 v 9.86 h -3.2 z m 14.94,4.93 c 0,3.21 -1.44,5.07 -3.89,5.07 a 3.07,3.07 0 0 1 -3,-1.83 h -0.06 v 4.86 h -3.21 v -13 h 3.19 v 1.76 h 0.06 a 3.09,3.09 0 0 1 3,-1.9 c 2.52,-0.02 3.97,1.83 3.97,5.05 z m -3.27,0 c 0,-1.56 -0.73,-2.57 -1.86,-2.57 -1.13,0 -1.84,1 -1.85,2.57 -0.01,1.57 0.72,2.56 1.85,2.56 1.13,0 1.92,-0.93 1.92,-2.55 z m 8.75,-5.16 c 2.69,0 4.36,1.27 4.38,3.31 H 96.1 c 0,-0.71 -0.59,-1.15 -1.47,-1.15 -0.88,0 -1.3,0.34 -1.3,0.85 0,0.51 0.37,0.67 1.11,0.82 l 2.06,0.42 c 2,0.42 2.8,1.22 2.8,2.71 0,2 -1.85,3.36 -4.6,3.36 -2.75,0 -4.54,-1.32 -4.67,-3.33 h 3.11 c 0.09,0.73 0.67,1.16 1.61,1.16 0.94,0 1.38,-0.3 1.38,-0.83 0,-0.53 -0.3,-0.62 -1.07,-0.78 l -1.86,-0.39 c -1.93,-0.41 -2.94,-1.42 -2.94,-2.93 0.06,-1.96 1.74,-3.21 4.45,-3.21 z m 15.4,10.08 h -3.11 v -1.85 h -0.06 a 2.82,2.82 0 0 1 -2.87,2.05 3.43,3.43 0 0 1 -3.53,-3.71 v -6.33 h 3.21 v 5.64 c 0,1.16 0.61,1.79 1.61,1.79 a 1.64,1.64 0 0 0 1.61,-1.88 v -5.55 h 3.2 z m 1.55,-9.85 h 3.12 v 1.9 h 0.07 a 2.86,2.86 0 0 1 2.81,-2.08 2.56,2.56 0 0 1 2.74,2.09 h 0.14 a 3,3 0 0 1 3,-2.09 3.12,3.12 0 0 1 3.23,3.35 v 6.69 h -3.23 v -5.87 c 0,-1 -0.47,-1.56 -1.38,-1.56 a 1.4,1.4 0 0 0 -1.41,1.59 v 5.84 h -3.06 v -5.9 c 0,-1 -0.49,-1.53 -1.37,-1.53 a 1.43,1.43 0 0 0 -1.43,1.61 v 5.82 h -3.21 z"
     style="fill:#394149"
     id="path77" />
  <path
     d="M 29.64,9.8804789 A 9.88,9.88 0 0 0 12.48,3.2004791 H 0 V 29.540479 h 26.35 v -12.31 a 9.87,9.87 0 0 0 3.29,-7.3500001 z m -5.07,0 A 4.82,4.82 0 1 1 19.75,5.0704791 4.82,4.82 0 0 1 24.57,9.8804789 Z M 21.28,24.470479 H 5.07 V 8.2704791 h 4.94 a 9.55,9.55 0 0 0 -0.15,1.6099998 9.9,9.9 0 0 0 9.89,9.8900001 9.67,9.67 0 0 0 1.53,-0.13 z"
     style="fill:#394149"
     id="path79" />
</svg>
