<svg
   xmlns="http://www.w3.org/2000/svg"
   viewBox="0 0 122.74 35"
   fill="none"
   id="svg1266">
  <path
     d="M 17.5,0 C 15.2019,0 12.9262,0.4527 10.803,1.3321 8.6798,2.2116 6.7507,3.5006 5.1256,5.1256 3.5006,6.7507 2.2116,8.6798 1.3321,10.803 0.4527,12.9262 0,15.2019 0,17.5 c 0,2.2981 0.4527,4.5738 1.3321,6.697 0.8795,2.1232 2.1685,4.0523 3.7935,5.6774 1.6251,1.625 3.5542,2.914 5.6774,3.7935 C 12.9262,34.5473 15.2019,35 17.5,35 v -8.75 c -1.1491,0 -2.2869,-0.2263 -3.3485,-0.6661 C 13.0899,25.1442 12.1253,24.4997 11.3128,23.6872 10.5003,22.8747 9.8558,21.9101 9.4161,20.8485 8.9763,19.7869 8.75,18.6491 8.75,17.5 c 0,-1.1491 0.2263,-2.2869 0.6661,-3.3485 0.4397,-1.0616 1.0842,-2.0262 1.8967,-2.8387 0.8125,-0.8125 1.7771,-1.457 2.8387,-1.8967 C 15.2131,8.9763 16.3509,8.75 17.5,8.75 Z"
     fill="#0f52ff"
     id="path1240" />
  <circle
     cx="17.500099"
     cy="17.5"
     r="5.8333302"
     fill="#0f52ff"
     id="circle1242" />
  <path
     d="m 0,17.5 c 0,2.2981 0.4527,4.5738 1.3321,6.697 0.8795,2.1232 2.1685,4.0523 3.7935,5.6774 1.6251,1.625 3.5542,2.914 5.6774,3.7935 C 12.9262,34.5473 15.2019,35 17.5,35 c 2.2981,0 4.5738,-0.4527 6.697,-1.3321 2.1232,-0.8795 4.0523,-2.1685 5.6774,-3.7935 1.625,-1.6251 2.914,-3.5542 3.7935,-5.6774 C 34.5473,22.0738 35,19.7981 35,17.5 h -8.75 c 0,1.1491 -0.2263,2.2869 -0.6661,3.3485 -0.4397,1.0616 -1.0842,2.0262 -1.8967,2.8387 -0.8125,0.8125 -1.7771,1.457 -2.8387,1.8967 C 19.7869,26.0237 18.6491,26.25 17.5,26.25 16.3509,26.25 15.2131,26.0237 14.1515,25.5839 13.0899,25.1442 12.1253,24.4997 11.3128,23.6872 10.5003,22.8747 9.8558,21.9101 9.4161,20.8485 8.9763,19.7869 8.75,18.6491 8.75,17.5 Z"
     fill="#5bd0f4"
     id="path1244" />
  <path
     d="m 23.3334,17.5 c 0,-1.5471 -0.6146,-3.0308 -1.7085,-4.1248 -1.094,-1.094 -2.5777,-1.7086 -4.1248,-1.7086 -1.5471,0 -3.0308,0.6146 -4.1248,1.7086 -1.094,1.094 -1.7086,2.5777 -1.7086,4.1248 h 5.8334 z"
     fill="#5bd0f4"
     id="path1246" />
  <path
     d="M 44.1396,10.925 H 41.9661 V 23 h 2.1735 z"
     fill="#0f52ff"
     id="path1248" />
  <path
     d="m 45.5589,18.722 c 0,2.7945 1.932,4.5195 4.485,4.5195 2.553,0 4.485,-1.725 4.485,-4.5195 0,-2.7945 -1.932,-4.5195 -4.485,-4.5195 -2.553,0 -4.485,1.725 -4.485,4.5195 z m 2.1735,0 c 0,-1.656 0.966,-2.622 2.3115,-2.622 1.3455,0 2.3115,0.966 2.3115,2.622 0,1.656 -0.966,2.622 -2.3115,2.622 -1.3455,0 -2.3115,-0.966 -2.3115,-2.622 z"
     fill="#0f52ff"
     id="path1250" />
  <path
     d="m 62.296,14.444 v 1.1557 h -0.1725 c -0.5175,-0.7417 -1.3455,-1.3972 -2.829,-1.3972 -2.0355,0 -3.864,1.725 -3.864,4.3815 0,2.6565 1.8285,4.3815 3.864,4.3815 1.4835,0 2.3115,-0.6728 2.7945,-1.3455 h 0.1725 v 0.828 c 0,1.656 -0.966,2.415 -2.3805,2.415 -1.4145,0 -2.139,-0.759 -2.4323,-1.7423 l -1.9492,0.8453 c 0.4485,1.2937 1.7595,2.7255 4.416,2.7255 2.7255,0 4.5195,-1.4318 4.5195,-4.1918 V 14.444 Z m -2.346,6.6585 c -1.3455,0 -2.346,-0.966 -2.346,-2.5185 0,-1.5525 1.0005,-2.5185 2.346,-2.5185 1.3455,0 2.346,0.966 2.346,2.5185 0,1.5525 -1.0005,2.5185 -2.346,2.5185 z"
     fill="#0f52ff"
     id="path1252" />
  <path
     d="m 65.8411,18.722 c 0,2.7945 1.932,4.5195 4.485,4.5195 2.553,0 4.4849,-1.725 4.4849,-4.5195 0,-2.7945 -1.9319,-4.5195 -4.4849,-4.5195 -2.553,0 -4.485,1.725 -4.485,4.5195 z m 2.1735,0 c 0,-1.656 0.966,-2.622 2.3115,-2.622 1.3455,0 2.3115,0.966 2.3115,2.622 0,1.656 -0.966,2.622 -2.3115,2.622 -1.3455,0 -2.3115,-0.966 -2.3115,-2.622 z"
     fill="#0f52ff"
     id="path1254" />
  <path
     d="m 76.517,11.96 c 0,0.8798 0.673,1.4835 1.536,1.4835 0.862,0 1.535,-0.6037 1.535,-1.4835 0,-0.8797 -0.673,-1.4835 -1.535,-1.4835 -0.863,0 -1.536,0.6038 -1.536,1.4835 z m 2.622,2.484 H 76.966 V 23 h 2.173 z"
     fill="#5bd0f4"
     id="path1256" />
  <path
     d="m 81.076,26.45 h 2.174 v -4.554 h 0.172 c 0.483,0.69 1.311,1.3455 2.795,1.3455 2.035,0 3.864,-1.725 3.864,-4.5195 0,-2.7945 -1.829,-4.5195 -3.864,-4.5195 -1.484,0 -2.312,0.6555 -2.829,1.3973 H 83.215 V 14.444 h -2.139 z m 4.485,-5.0715 c -1.345,0 -2.346,-0.966 -2.346,-2.6565 0,-1.6905 1.001,-2.6565 2.346,-2.6565 1.346,0 2.346,0.966 2.346,2.6565 0,1.6905 -1,2.6565 -2.346,2.6565 z"
     fill="#5bd0f4"
     id="path1258" />
  <path
     d="m 91.349,16.8418 c 0,1.6905 1.414,2.3115 3.208,2.6565 l 0.449,0.0862 c 1.069,0.207 1.552,0.4658 1.552,1.0178 0,0.552 -0.483,0.9832 -1.483,0.9832 -1.001,0 -1.811,-0.414 -2.036,-1.656 l -2.001,0.5175 c 0.294,1.794 1.794,2.7945 4.037,2.7945 2.173,0 3.588,-1.0177 3.588,-2.8117 0,-1.7941 -1.449,-2.277 -3.381,-2.6565 L 94.833,17.687 c -0.897,-0.1725 -1.38,-0.414 -1.38,-0.9832 0,-0.5175 0.449,-0.8453 1.277,-0.8453 0.828,0 1.414,0.345 1.621,1.2765 l 1.967,-0.6037 c -0.414,-1.38 -1.673,-2.3288 -3.588,-2.3288 -2.036,0 -3.381,0.9488 -3.381,2.6393 z"
     fill="#5bd0f4"
     id="path1260" />
  <path
     d="m 108.426,23 v -8.556 h -2.173 v 4.416 c 0,1.587 -0.776,2.5185 -2.105,2.5185 -1.173,0 -1.828,-0.6382 -1.828,-1.932 V 14.444 h -2.174 v 5.106 c 0,2.1218 1.329,3.588 3.33,3.588 1.569,0 2.294,-0.69 2.639,-1.4145 h 0.172 V 23 Z"
     fill="#5bd0f4"
     id="path1262" />
  <path
     d="M 110.354,14.444 V 23 h 2.174 v -5.106 c 0,-1.173 0.552,-1.8285 1.552,-1.8285 0.863,0 1.38,0.483 1.38,1.4145 V 23 h 2.174 v -5.106 c 0,-1.173 0.552,-1.8285 1.552,-1.8285 0.863,0 1.38,0.483 1.38,1.4145 V 23 h 2.174 v -5.6235 c 0,-2.07 -1.277,-3.0705 -2.864,-3.0705 -1.397,0 -2.035,0.621 -2.449,1.3455 h -0.173 c -0.397,-0.8107 -1.104,-1.3455 -2.346,-1.3455 -1.242,0 -1.915,0.552 -2.242,1.2075 h -0.173 V 14.444 Z"
     fill="#5bd0f4"
     id="path1264" />
</svg>
