<svg
   xmlns="http://www.w3.org/2000/svg"
   id="logoipsum"
   data-name="logoipsum"
   viewBox="0 0 100.19 47.654182">
  <title
     id="title314">logoipsum-4</title>
  <path
     d="m 0,28.610002 h 3 v 14.71 H 0 Z"
     style="fill:#394149"
     id="path316" />
  <path
     d="m 4.74,38.280002 a 5.34,5.34 0 1 1 5.34,5.33 5.28,5.28 0 0 1 -5.34,-5.33 z m 7.66,0 a 2.32,2.32 0 1 0 -2.32,2.38 2.26,2.26 0 0 0 2.32,-2.38 z"
     style="fill:#394149"
     id="path318" />
  <path
     d="m 27.48,33.240002 v 9.58 c 0,3.39 -2.65,4.82 -5.33,4.82 a 5.15,5.15 0 0 1 -4.77,-2.44 l 2.58,-1.49 a 2.3,2.3 0 0 0 2.25,1.27 2,2 0 0 0 2.32,-2.16 v -0.93 a 3.56,3.56 0 0 1 -2.94,1.31 5.12,5.12 0 0 1 0,-10.24 3.59,3.59 0 0 1 2.94,1.31 v -1 z m -2.95,4.84 a 2.44,2.44 0 1 0 -2.44,2.34 2.28,2.28 0 0 0 2.44,-2.34 z"
     style="fill:#394149"
     id="path320" />
  <path
     d="m 29.21,38.280002 a 5.34,5.34 0 1 1 5.34,5.33 5.28,5.28 0 0 1 -5.34,-5.33 z m 7.66,0 a 2.32,2.32 0 1 0 -2.32,2.38 2.26,2.26 0 0 0 2.3,-2.38 z"
     style="fill:#394149"
     id="path322" />
  <path
     d="m 41.28,30.540002 a 1.82,1.82 0 1 1 1.82,1.82 1.83,1.83 0 0 1 -1.82,-1.82 z m 0.31,2.7 h 3 v 10.08 h -3 z"
     style="fill:#394149"
     id="path324" />
  <path
     d="m 57.67,38.280002 a 5.06,5.06 0 0 1 -4.81,5.33 3.83,3.83 0 0 1 -3,-1.23 v 5 h -3 v -14.14 h 3 v 0.95 a 3.83,3.83 0 0 1 3,-1.23 5.06,5.06 0 0 1 4.81,5.32 z m -3,0 a 2.4,2.4 0 1 0 -2.46,2.46 2.3,2.3 0 0 0 2.44,-2.46 z"
     style="fill:#394149"
     id="path326" />
  <path
     d="m 67.01,40.300002 c 0,2.32 -2,3.31 -4.2,3.31 a 4.42,4.42 0 0 1 -4.33,-2.4 l 2.62,-1.49 a 1.66,1.66 0 0 0 1.71,1.19 c 0.73,0 1.09,-0.23 1.09,-0.63 0,-1.11 -5,-0.52 -5,-4 0,-2.2 1.86,-3.31 4,-3.31 a 4.43,4.43 0 0 1 3.94,2.16 l -2.63,1.38 a 1.49,1.49 0 0 0 -1.36,-0.89 c -0.52,0 -0.84,0.2 -0.84,0.57 0.04,1.15 5,0.38 5,4.11 z"
     style="fill:#394149"
     id="path328" />
  <path
     d="m 78.05,33.240002 v 10.08 h -3 v -0.94 a 3.45,3.45 0 0 1 -2.88,1.23 c -2,0 -3.77,-1.45 -3.77,-4.18 v -6.19 h 3 v 5.75 a 1.66,1.66 0 0 0 1.81,1.83 c 1.1,0 1.87,-0.64 1.87,-2.07 v -5.51 z"
     style="fill:#394149"
     id="path330" />
  <path
     d="m 95.39,37.140002 v 6.18 h -3 v -5.92 c 0,-1 -0.49,-1.66 -1.45,-1.66 -0.96,0 -1.58,0.71 -1.58,1.9 v 5.68 h -3 v -5.92 c 0,-1 -0.48,-1.66 -1.45,-1.66 -0.97,0 -1.57,0.71 -1.57,1.9 v 5.68 h -3 v -10.08 h 3 v 0.93 a 3.1,3.1 0 0 1 2.7,-1.21 3,3 0 0 1 2.64,1.33 3.32,3.32 0 0 1 2.92,-1.33 c 2.28,0 3.79,1.66 3.79,4.18 z"
     style="fill:#394149"
     id="path332" />
  <circle
     cx="97.950005"
     cy="30.940001"
     r="2.24"
     style="fill:#394149"
     id="circle334" />
  <circle
     cx="33.949997"
     cy="10.49"
     r="10.49"
     style="fill:#394149"
     id="circle336" />
  <circle
     cx="57.400002"
     cy="10.49"
     r="10.49"
     style="fill:#394149"
     id="circle338" />
  <rect
     x="0.020001374"
     y="1.9073486e-06"
     width="20.969999"
     height="20.969999"
     style="fill:#394149"
     id="rect340" />
</svg>
